<svg width="100" height="100" viewBox="0 0 100 100" fill="none" xmlns="http://www.w3.org/2000/svg">
<circle cx="50" cy="50" r="50" fill="#9821F3"/>
<g clip-path="url(#clip0_1824_4561)">
<path d="M43.6491 68.8584C43.3768 68.4772 43.1713 68.284 43.0834 68.0486C42.5758 66.6942 42.0927 65.331 41.6061 63.9695C39.5015 58.0793 35.498 54.0916 29.6078 51.9924C28.3711 51.5514 27.1291 51.1228 25.9082 50.645C25.5727 50.5132 25.3022 50.2199 25 50.002C25.2899 49.7754 25.5481 49.468 25.8783 49.338C27.9442 48.5159 30.0962 47.8764 32.0883 46.9067C36.7347 44.6459 39.8371 40.948 41.578 36.096C42.0365 34.8189 42.4721 33.533 42.964 32.2682C43.094 31.9326 43.3926 31.6639 43.614 31.3652C43.8406 31.6551 44.1498 31.9116 44.278 32.2401C44.9561 33.981 45.5059 35.7763 46.2508 37.4856C48.4466 42.5273 52.1884 45.9599 57.3426 47.8571C58.7005 48.356 60.0707 48.818 61.4199 49.3398C61.7378 49.4627 61.989 49.7543 62.2719 49.9687C61.9785 50.197 61.7202 50.5115 61.3882 50.6397C59.5841 51.3406 57.7185 51.8993 55.9548 52.6845C50.9798 54.9015 47.5982 58.638 45.7343 63.75C45.2161 65.1711 44.7137 66.5993 44.1849 68.017C44.0953 68.2576 43.9056 68.4597 43.6473 68.8567L43.6491 68.8584Z" fill="white"/>
<path d="M55.8672 29.3421C58.0314 28.4971 60.2906 27.8682 62.0068 26.1502C63.7249 24.4321 64.3714 22.1818 65.1865 20C65.2532 20 65.32 20 65.3867 20C65.4851 20.1704 65.6098 20.332 65.6801 20.513C65.9436 21.1981 66.1843 21.892 66.4407 22.5788C67.5106 25.4475 69.5079 27.3764 72.3696 28.4304C72.995 28.6605 73.6274 28.8766 74.2528 29.112C74.4443 29.184 74.6217 29.2929 74.9748 29.4704C74.6024 29.6601 74.4074 29.783 74.1966 29.8621C73.385 30.1678 72.5505 30.419 71.7548 30.7615C69.334 31.8068 67.5914 33.5424 66.5918 35.9912C66.2809 36.7519 66.0297 37.5389 65.7293 38.3048C65.6467 38.5138 65.4833 38.693 65.3569 38.8845C65.2251 38.7 65.053 38.5332 64.9704 38.3311C64.6981 37.6495 64.468 36.9521 64.2045 36.267C63.1399 33.5143 61.2286 31.6135 58.4618 30.5771C57.796 30.3276 57.125 30.0905 56.4574 29.8393C56.2624 29.7655 56.0762 29.6671 55.8848 29.581C55.8795 29.5002 55.8725 29.4212 55.8672 29.3404V29.3421Z" fill="white"/>
<path d="M74.8196 70.6422C72.6325 71.4871 70.3523 72.1231 68.6308 73.8675C66.9338 75.5855 66.3049 77.8394 65.3475 79.9983C64.3567 77.8077 63.7278 75.5258 61.9887 73.8007C60.2689 72.0932 58.0045 71.4801 55.8525 70.6193L55.8701 70.4208C56.0528 70.3295 56.2302 70.2188 56.42 70.1468C57.1068 69.8868 57.8007 69.6461 58.4858 69.3844C61.2456 68.3374 63.1569 66.4331 64.2127 63.6769C64.4902 62.9496 64.7362 62.21 65.0155 61.4845C65.0734 61.3352 65.214 61.2175 65.3159 61.084C65.4353 61.2228 65.6005 61.3422 65.6655 61.5021C65.9114 62.1222 66.1257 62.7546 66.3506 63.3817C67.4344 66.405 69.4933 68.4428 72.5236 69.5056C73.286 69.7726 74.0414 70.0607 74.8003 70.3383C74.8055 70.4384 74.8126 70.5368 74.8178 70.6369L74.8196 70.6422Z" fill="white"/>
</g>
<defs>
<clipPath id="clip0_1824_4561">
<rect width="49.9745" height="60" fill="white" transform="translate(25 20)"/>
</clipPath>
</defs>
</svg>
