<svg width="150" height="51" viewBox="0 0 150 51" fill="none" xmlns="http://www.w3.org/2000/svg">
<rect x="0.625" y="1.35937" width="148.75" height="48.75" rx="6.875" fill="black"/>
<rect x="0.625" y="1.35937" width="148.75" height="48.75" rx="6.875" stroke="#A6A6A6" stroke-width="1.25"/>
<path d="M30.8806 26.6884C30.8958 25.5385 31.2086 24.411 31.7901 23.4109C32.3715 22.4108 33.2026 21.5705 34.206 20.9682C33.5685 20.0794 32.7276 19.3479 31.7499 18.8319C30.7723 18.3159 29.6849 18.0296 28.574 17.9957C26.2044 17.7528 23.9072 19.38 22.6997 19.38C21.4688 19.38 19.6097 18.0198 17.6077 18.06C16.3128 18.1008 15.0507 18.4685 13.9446 19.1271C12.8385 19.7857 11.9259 20.7128 11.2959 21.8181C8.5669 26.431 10.6025 33.2106 13.2167 36.9394C14.5247 38.7653 16.0533 40.8049 18.0535 40.7326C20.0108 40.6533 20.7418 39.514 23.1044 39.514C25.4451 39.514 26.1309 40.7326 28.1717 40.6866C30.272 40.6533 31.5952 38.8526 32.8573 37.0094C33.7971 35.7084 34.5203 34.2705 35 32.749C33.7798 32.2451 32.7385 31.4017 32.006 30.324C31.2734 29.2462 30.882 27.9818 30.8806 26.6884Z" fill="white"/>
<path d="M27.0261 15.5433C28.1712 14.2012 28.7354 12.4761 28.5988 10.7344C26.8492 10.9138 25.2332 11.7301 24.0725 13.0208C23.5051 13.6513 23.0705 14.3848 22.7935 15.1794C22.5166 15.974 22.4028 16.8141 22.4586 17.6516C23.3337 17.6604 24.1994 17.4752 24.9906 17.11C25.7817 16.7448 26.4777 16.2091 27.0261 15.5433Z" fill="white"/>
<path d="M47.5808 13.9861H50.0818C52.243 13.9861 53.2944 15.2712 53.2944 17.6023C53.2944 19.9334 52.2324 21.2344 50.0818 21.2344H47.5808V13.9861ZM48.7862 15.0004V20.2202H49.9491C51.3828 20.2202 52.0572 19.3546 52.0572 17.6182C52.0572 15.8712 51.3775 15.0004 49.9491 15.0004H48.7862ZM57.1071 15.5261C58.5726 15.5261 59.5975 16.4766 59.5975 18.0536V18.7811C59.5975 20.4113 58.5726 21.33 57.1071 21.33C55.6202 21.33 54.606 20.4219 54.606 18.7864V18.059C54.606 16.5244 55.6362 15.5261 57.1071 15.5261ZM57.1124 16.4766C56.2734 16.4766 55.7955 17.1775 55.7955 18.1174V18.744C55.7955 19.6838 56.2415 20.3795 57.1124 20.3795C57.9726 20.3795 58.4133 19.6891 58.4133 18.744V18.1174C58.4133 17.1775 57.9514 16.4766 57.1124 16.4766ZM68.2529 15.6216L66.7767 21.2344H65.5766L64.4031 17.0925H64.3712L63.2189 21.2344H62.0135L60.4736 15.6216H61.7427L62.6454 19.9016H62.6985L63.8296 15.6216H64.9394L66.1023 19.9016H66.1554L67.074 15.6216H68.2529ZM69.4211 21.2344V15.6216H70.5787V16.6306H70.6371C70.7805 16.1898 71.1893 15.5367 72.3257 15.5367C73.4567 15.5367 74.2161 16.1633 74.2161 17.443V21.2344H73.0372V17.7881C73.0372 16.9332 72.5912 16.5403 71.9274 16.5403C71.0566 16.5403 70.5999 17.2094 70.5999 18.1174V21.2344H69.4211ZM76.0002 21.2344V13.6038H77.1791V21.2344H76.0002ZM81.2253 15.5261C82.6909 15.5261 83.7158 16.4766 83.7158 18.0536V18.7811C83.7158 20.4113 82.6909 21.33 81.2253 21.33C79.7385 21.33 78.7243 20.4219 78.7243 18.7864V18.059C78.7243 16.5244 79.7545 15.5261 81.2253 15.5261ZM81.2307 16.4766C80.3917 16.4766 79.9138 17.1775 79.9138 18.1174V18.744C79.9138 19.6838 80.3598 20.3795 81.2307 20.3795C82.0909 20.3795 82.5316 19.6891 82.5316 18.744V18.1174C82.5316 17.1775 82.0696 16.4766 81.2307 16.4766ZM86.769 21.3193C85.6805 21.3193 84.9318 20.6503 84.9318 19.6042C84.9318 18.6112 85.6221 17.9421 86.9177 17.9421H88.3355V17.4164C88.3355 16.7739 87.9266 16.4713 87.2788 16.4713C86.6416 16.4713 86.3549 16.7368 86.2646 17.1085H85.1442C85.2132 16.1686 85.9194 15.5367 87.316 15.5367C88.5161 15.5367 89.509 16.0358 89.509 17.4324V21.2344H88.3886V20.5069H88.3355C88.0859 20.937 87.5974 21.3193 86.769 21.3193ZM87.1354 20.406C87.8045 20.406 88.3355 19.9493 88.3355 19.3387V18.7333H87.1036C86.4186 18.7333 86.1159 19.0785 86.1159 19.5458C86.1159 20.1299 86.6044 20.406 87.1354 20.406ZM93.1411 15.5473C93.9323 15.5473 94.5377 15.8978 94.7554 16.4659H94.8138V13.6038H95.9926V21.2344H94.8456V20.337H94.7872C94.6173 20.9052 93.9429 21.3087 93.1252 21.3087C91.8348 21.3087 90.9958 20.3901 90.9958 18.9086V17.9474C90.9958 16.4659 91.8508 15.5473 93.1411 15.5473ZM93.4703 16.5137C92.6844 16.5137 92.1959 17.0978 92.1959 18.1174V18.7333C92.1959 19.7582 92.6898 20.3423 93.4969 20.3423C94.2934 20.3423 94.8138 19.7635 94.8138 18.8077V17.9581C94.8138 17.0925 94.2456 16.5137 93.4703 16.5137ZM102.466 15.5261C103.931 15.5261 104.956 16.4766 104.956 18.0536V18.7811C104.956 20.4113 103.931 21.33 102.466 21.33C100.979 21.33 99.9645 20.4219 99.9645 18.7864V18.059C99.9645 16.5244 100.995 15.5261 102.466 15.5261ZM102.471 16.4766C101.632 16.4766 101.154 17.1775 101.154 18.1174V18.744C101.154 19.6838 101.6 20.3795 102.471 20.3795C103.331 20.3795 103.772 19.6891 103.772 18.744V18.1174C103.772 17.1775 103.31 16.4766 102.471 16.4766ZM106.475 21.2344V15.6216H107.632V16.6306H107.691C107.834 16.1898 108.243 15.5367 109.379 15.5367C110.51 15.5367 111.27 16.1633 111.27 17.443V21.2344H110.091V17.7881C110.091 16.9332 109.645 16.5403 108.981 16.5403C108.11 16.5403 107.654 17.2094 107.654 18.1174V21.2344H106.475ZM115.831 15.6588V14.257H116.983V15.6588H118.242V16.5828H116.983V19.5617C116.983 20.1724 117.212 20.3423 117.844 20.3423C118.003 20.3423 118.215 20.3317 118.305 20.321V21.2238C118.21 21.2397 117.817 21.2715 117.551 21.2715C116.187 21.2715 115.815 20.783 115.815 19.6573V16.5828H114.96V15.6588H115.831ZM119.729 21.2344V13.6038H120.902V16.6306H120.961C121.083 16.2323 121.539 15.5367 122.665 15.5367C123.759 15.5367 124.539 16.1686 124.539 17.4483V21.2344H123.366V17.7935C123.366 16.9385 122.893 16.5403 122.224 16.5403C121.38 16.5403 120.902 17.204 120.902 18.1174V21.2344H119.729ZM128.495 21.33C126.966 21.33 126.016 20.3901 126.016 18.8077V18.0483C126.016 16.4553 127.056 15.5261 128.426 15.5261C129.834 15.5261 130.827 16.5031 130.827 18.0483V18.7068H127.184V18.9829C127.184 19.79 127.662 20.3848 128.49 20.3848C129.106 20.3848 129.531 20.0927 129.611 19.7422H130.763C130.694 20.3901 130.009 21.33 128.495 21.33ZM127.184 17.9368H129.674V17.8625C129.674 17.0182 129.18 16.4553 128.432 16.4553C127.683 16.4553 127.184 17.0182 127.184 17.8625V17.9368Z" fill="white"/>
<path d="M49.2906 40.2344H46.8374L51.8289 25.7379H54.5264L59.5072 40.2344H56.9584L55.6733 36.22H50.5863L49.2906 40.2344ZM53.1882 28.2443H53.0927L51.1279 34.3721H55.1317L53.1882 28.2443ZM66.2778 40.3937C64.8228 40.3937 63.7183 39.7034 63.1236 38.6732H63.0387V43.962H60.681V29.0089H62.9749V30.655H63.0599C63.6759 29.5824 64.8228 28.8602 66.3309 28.8602C68.8479 28.8602 70.6427 30.7612 70.6427 34.1172V35.1155C70.6427 38.4502 68.8691 40.3937 66.2778 40.3937ZM65.7362 38.4502C67.2336 38.4502 68.2531 37.2501 68.2531 34.988V34.2021C68.2531 32.025 67.2973 30.7825 65.6937 30.7825C64.0476 30.7825 63.0174 32.1206 63.0174 34.1915V34.988C63.0174 37.1121 64.0582 38.4502 65.7362 38.4502ZM78.2628 40.3937C76.8079 40.3937 75.7034 39.7034 75.1087 38.6732H75.0237V43.962H72.666V29.0089H74.96V30.655H75.045C75.6609 29.5824 76.8079 28.8602 78.3159 28.8602C80.8329 28.8602 82.6277 30.7612 82.6277 34.1172V35.1155C82.6277 38.4502 80.8542 40.3937 78.2628 40.3937ZM77.7212 38.4502C79.2187 38.4502 80.2382 37.2501 80.2382 34.988V34.2021C80.2382 32.025 79.2824 30.7825 77.6787 30.7825C76.0326 30.7825 75.0025 32.1206 75.0025 34.1915V34.988C75.0025 37.1121 76.0432 38.4502 77.7212 38.4502ZM87.5135 36.2094H89.8712C89.9774 37.4625 91.0818 38.5352 93.1315 38.5352C95.0113 38.5352 96.1264 37.6537 96.1264 36.2837C96.1264 35.1792 95.383 34.5845 93.8325 34.2128L91.4536 33.618C89.5844 33.1826 87.9064 32.0675 87.9064 29.7098C87.9064 26.938 90.3278 25.4193 93.1422 25.4193C95.9565 25.4193 98.3035 26.938 98.3566 29.6461H96.0414C95.9352 28.4142 94.9901 27.3947 93.1103 27.3947C91.4536 27.3947 90.3278 28.1805 90.3278 29.5293C90.3278 30.4745 90.9863 31.1542 92.335 31.4622L94.7033 32.0463C96.8804 32.5773 98.5372 33.6074 98.5372 36.0713C98.5372 38.9175 96.2326 40.5211 92.951 40.5211C88.9153 40.5211 87.5666 38.1635 87.5135 36.2094ZM101.41 29.0089V26.2795H103.725V29.0089H105.913V30.8993H103.725V36.889C103.725 38.1104 104.182 38.4502 105.446 38.4502C105.648 38.4502 105.839 38.4502 105.977 38.429V40.2344C105.786 40.2662 105.34 40.3087 104.862 40.3087C102.132 40.3087 101.378 39.3317 101.378 37.0802V30.8993H99.8278V29.0089H101.41ZM112.28 28.8177C115.509 28.8177 117.261 31.0905 117.261 34.149V35.0518C117.261 38.2166 115.519 40.4255 112.28 40.4255C109.041 40.4255 107.278 38.2166 107.278 35.0518V34.149C107.278 31.1011 109.052 28.8177 112.28 28.8177ZM112.28 30.7081C110.528 30.7081 109.657 32.1418 109.657 34.1809V35.0411C109.657 37.0483 110.517 38.5245 112.28 38.5245C114.043 38.5245 114.893 37.059 114.893 35.0411V34.1809C114.893 32.1312 114.032 30.7081 112.28 30.7081ZM119.252 40.2344V29.0089H121.61V30.4851H121.695C121.982 29.7842 122.821 28.8496 124.382 28.8496C124.69 28.8496 124.955 28.8708 125.179 28.9133V30.9949C124.977 30.9418 124.563 30.9099 124.17 30.9099C122.279 30.9099 121.642 32.0781 121.642 33.5862V40.2344H119.252ZM130.898 40.4255C127.892 40.4255 125.981 38.4396 125.981 35.1155V33.9791C125.981 30.8462 127.85 28.8177 130.802 28.8177C133.797 28.8177 135.602 30.9205 135.602 34.0853V35.158H128.306V35.4235C128.306 37.3138 129.326 38.567 130.93 38.567C132.13 38.567 132.947 37.9723 133.234 37.0059H135.475C135.135 38.8219 133.67 40.4255 130.898 40.4255ZM128.306 33.5118H133.298V33.4906C133.298 31.8976 132.31 30.6444 130.813 30.6444C129.294 30.6444 128.306 31.8976 128.306 33.4906V33.5118Z" fill="white"/>
</svg>
