<svg width="102" height="102" viewBox="0 0 102 102" fill="none" xmlns="http://www.w3.org/2000/svg">
<circle cx="51" cy="51" r="51" fill="#1CB2B7"/>
<g clip-path="url(#clip0_2406_3486)">
<path d="M28.0024 50.8906C28.0024 44.2708 27.9981 37.6521 28.0045 31.0324C28.0067 28.9953 29.3197 27.4119 31.2806 27.0622C31.5938 27.0064 31.92 27.0097 32.2407 27.0097C38.0935 27.0064 43.9473 27.0118 49.8001 27C50.4126 26.9989 50.8889 27.1845 51.3244 27.6222C54.6724 30.9862 58.0311 34.3396 61.3941 37.6897C61.7856 38.0791 61.9723 38.5125 61.9723 39.0692C61.9647 49.6494 61.9723 60.2297 61.9647 70.81C61.9637 73.1753 60.2795 74.8584 57.9152 74.8605C49.2959 74.8681 40.6766 74.8681 32.0573 74.8605C29.7016 74.8584 28.0077 73.1592 28.0056 70.8035C27.9981 64.1666 28.0035 57.5286 28.0035 50.8917L28.0024 50.8906ZM48.8808 29.582C48.6265 29.582 48.4345 29.582 48.2425 29.582C42.9068 29.582 37.5711 29.582 32.2353 29.582C31.0629 29.582 30.5758 30.0658 30.5758 31.2319C30.5758 44.3459 30.5758 57.4589 30.5758 70.5729C30.5758 71.799 31.0661 72.2914 32.2922 72.2914C40.7334 72.2914 49.1736 72.2914 57.6149 72.2914C58.93 72.2914 59.3945 71.8333 59.3945 70.5353C59.3945 60.5976 59.3945 50.66 59.3945 40.7223C59.3945 40.5313 59.3945 40.3404 59.3945 40.0926C59.1446 40.0926 58.9536 40.0926 58.7627 40.0926C57.4422 40.0926 56.1216 40.0979 54.8011 40.0915C51.3083 40.0754 48.8883 37.6489 48.8818 34.1604C48.8797 32.6629 48.8818 31.1654 48.8818 29.582H48.8808ZM57.3059 37.4826C55.3804 35.556 53.4023 33.5769 51.4553 31.6288C51.4553 32.5256 51.4413 33.5061 51.4585 34.4865C51.4853 35.969 52.5602 37.2938 54.0363 37.458C55.1551 37.5835 56.2997 37.4826 57.307 37.4826H57.3059Z" fill="white"/>
<path d="M64.0733 48.0432C64.0733 42.7085 64.0658 37.3739 64.0765 32.0392C64.0819 29.5698 65.6062 27.6164 67.8718 27.1208C70.9334 26.4504 73.8051 28.6966 73.8319 31.8397C73.8651 35.7648 73.8415 39.6899 73.8415 43.615C73.8415 50.5201 73.8437 57.4241 73.834 64.3292C73.834 64.6768 73.7847 65.048 73.6592 65.3698C72.5317 68.2565 71.3796 71.1335 70.2425 74.017C70.0291 74.5576 69.7008 74.9374 69.0937 74.9932C68.4532 75.0522 68.0049 74.7454 67.7184 74.0384C66.724 71.5776 65.7682 69.1007 64.732 66.6581C64.2482 65.5178 64.0444 64.3775 64.0551 63.1374C64.0969 58.1064 64.0723 53.0742 64.0723 48.0432H64.0733ZM66.6693 63.3724H71.2316V36.6627H66.6693V63.3724ZM71.2584 34.0195C71.2584 33.2064 71.2992 32.4394 71.2488 31.6788C71.1747 30.5599 70.2522 29.6632 69.1741 29.5838C67.9931 29.4969 66.8914 30.2145 66.7251 31.3484C66.5985 32.213 66.7004 33.1098 66.7004 34.0205H71.2584V34.0195ZM70.6416 66.022H67.2733C67.8386 67.4294 68.3835 68.7853 68.9682 70.2421C69.5485 68.7799 70.0849 67.4272 70.6416 66.022Z" fill="white"/>
<path d="M44.971 59.2576C41.6509 59.2576 38.3319 59.2598 35.0118 59.2565C34.1869 59.2565 33.6387 58.82 33.5669 58.1313C33.4843 57.3396 34.0271 56.7131 34.8584 56.6906C35.7145 56.667 36.5716 56.6831 37.4287 56.6831C43.2471 56.6831 49.0645 56.682 54.8829 56.6831C55.8151 56.6831 56.3729 57.1326 56.4105 57.8963C56.4502 58.6944 55.9042 59.2512 55.0363 59.2533C52.5551 59.2619 50.075 59.2576 47.5938 59.2576C46.7195 59.2576 45.8452 59.2576 44.9699 59.2576H44.971Z" fill="white"/>
<path d="M44.997 66.306C41.678 66.306 38.3579 66.3082 35.0389 66.3049C34.141 66.3049 33.5725 65.8083 33.5607 65.0381C33.551 64.3526 34.0423 63.8055 34.7267 63.7433C34.8329 63.7336 34.9402 63.7368 35.0475 63.7368C41.6683 63.7368 48.2902 63.7368 54.9111 63.7368C55.84 63.7368 56.3903 64.1927 56.4139 64.9662C56.4375 65.7568 55.8829 66.2996 55.0098 66.3028C52.7967 66.3114 50.5837 66.306 48.3707 66.306C47.2465 66.306 46.1223 66.306 44.998 66.306H44.997Z" fill="white"/>
<path d="M44.9743 52.2076C41.7626 52.2076 38.5509 52.2076 35.3391 52.2076C35.1074 52.2076 34.8736 52.2129 34.644 52.185C34.0519 52.111 33.6056 51.6262 33.5659 51.034C33.5241 50.4247 33.8695 49.883 34.4413 49.7221C34.6773 49.6556 34.9336 49.6416 35.1814 49.6416C41.7304 49.6373 48.2783 49.6384 54.8273 49.6405C55.0225 49.6405 55.222 49.6459 55.4119 49.6867C56.0545 49.8261 56.4492 50.3582 56.4127 51.0104C56.3763 51.6551 55.9129 52.1614 55.2521 52.1883C54.3971 52.2237 53.54 52.2076 52.6829 52.2086C50.1137 52.2108 47.5435 52.2086 44.9743 52.2086V52.2076Z" fill="white"/>
<path d="M45.0333 42.6021C48.3169 42.6021 51.5994 42.6 54.883 42.6042C55.8463 42.6053 56.4031 43.073 56.4149 43.8636C56.4245 44.5115 55.9954 45.0329 55.3507 45.1369C55.1405 45.1702 54.9238 45.1702 54.7103 45.1702C48.2332 45.1723 41.7561 45.1723 35.279 45.1702C35.0484 45.1702 34.8124 45.168 34.586 45.1284C33.951 45.0146 33.5369 44.4772 33.5616 43.825C33.5841 43.206 34.0261 42.7126 34.6504 42.63C34.8617 42.6021 35.0773 42.6032 35.2908 42.6032C38.5379 42.6021 41.7861 42.6032 45.0333 42.6032V42.6021Z" fill="white"/>
<path d="M39.8896 35.5666C41.5834 35.5666 43.2783 35.5655 44.9722 35.5666C45.5278 35.5666 45.9344 35.8294 46.1564 36.3293C46.3603 36.7873 46.341 37.2883 45.973 37.623C45.693 37.8772 45.2693 38.1111 44.9078 38.1154C41.5738 38.1518 38.2376 38.1454 34.9036 38.1304C34.0958 38.1272 33.5584 37.5704 33.5606 36.8367C33.5627 36.0922 34.0948 35.5741 34.9143 35.5676C36.5728 35.5548 38.2312 35.5633 39.8896 35.5633V35.5655V35.5666Z" fill="white"/>
</g>
<defs>
<clipPath id="clip0_2406_3486">
<rect width="45.8503" height="48" fill="white" transform="translate(28 27)"/>
</clipPath>
</defs>
</svg>
