<svg width="46" height="48" viewBox="0 0 46 48" fill="none" xmlns="http://www.w3.org/2000/svg">
<g clip-path="url(#clip0_1118_3108)">
<path d="M0.00237767 23.8906C0.00237767 17.2708 -0.00191322 10.6521 0.00452311 4.03236C0.00666855 1.99527 1.31968 0.41193 3.28061 0.0622225C3.59385 0.00644095 3.91996 0.00965912 4.2407 0.00965912C10.0935 0.00644095 15.9473 0.0118046 21.8001 4.62225e-06C22.4126 -0.0010681 22.8889 0.184513 23.3244 0.622183C26.6724 3.98624 30.0311 7.33957 33.3941 10.6897C33.7856 11.0791 33.9723 11.5125 33.9723 12.0692C33.9647 22.6494 33.9723 33.2297 33.9647 43.81C33.9637 46.1753 32.2795 47.8584 29.9152 47.8605C21.2959 47.8681 12.6766 47.8681 4.05727 47.8605C1.70157 47.8584 0.00774128 46.1592 0.00559583 43.8035C-0.00191322 37.1666 0.00345039 30.5286 0.00345039 23.8917L0.00237767 23.8906ZM20.8808 2.58205C20.6265 2.58205 20.4345 2.58205 20.2425 2.58205C14.9068 2.58205 9.57105 2.58205 4.23534 2.58205C3.06285 2.58205 2.57584 3.06584 2.57584 4.23189C2.57584 17.3459 2.57584 30.4589 2.57584 43.5729C2.57584 44.799 3.06607 45.2914 4.29219 45.2914C12.7334 45.2914 21.1736 45.2914 29.6149 45.2914C30.93 45.2914 31.3945 44.8333 31.3945 43.5353C31.3945 33.5976 31.3945 23.66 31.3945 13.7223C31.3945 13.5313 31.3945 13.3404 31.3945 13.0926C31.1446 13.0926 30.9536 13.0926 30.7627 13.0926C29.4422 13.0926 28.1216 13.0979 26.8011 13.0915C23.3083 13.0754 20.8883 10.6489 20.8818 7.16042C20.8797 5.6629 20.8818 4.16538 20.8818 2.58205H20.8808ZM29.3059 10.4826C27.3804 8.55603 25.4023 6.57686 23.4553 4.6288C23.4553 5.52559 23.4413 6.50606 23.4585 7.48653C23.4853 8.96903 24.5602 10.2938 26.0363 10.458C27.1551 10.5835 28.2997 10.4826 29.307 10.4826H29.3059Z" fill="white"/>
<path d="M36.0733 21.0432C36.0733 15.7085 36.0658 10.3739 36.0765 5.03923C36.0819 2.56983 37.6062 0.616401 39.8718 0.120803C42.9334 -0.549648 45.8051 1.69663 45.8319 4.83971C45.8651 8.76479 45.8415 12.6899 45.8415 16.615C45.8415 23.5201 45.8437 30.4241 45.834 37.3292C45.834 37.6768 45.7847 38.048 45.6592 38.3698C44.5317 41.2565 43.3796 44.1335 42.2425 47.017C42.0291 47.5576 41.7008 47.9374 41.0937 47.9932C40.4532 48.0522 40.0049 47.7454 39.7184 47.0384C38.724 44.5776 37.7682 42.1007 36.732 39.6581C36.2482 38.5178 36.0444 37.3775 36.0551 36.1374C36.0969 31.1064 36.0723 26.0742 36.0723 21.0432H36.0733ZM38.6693 36.3724H43.2316V9.66266H38.6693V36.3724ZM43.2584 7.01948C43.2584 6.20635 43.2992 5.43936 43.2488 4.6788C43.1747 3.55995 42.2522 2.66315 41.1741 2.58377C39.9931 2.49688 38.8914 3.21453 38.7251 4.3484C38.5985 5.21301 38.7004 6.10981 38.7004 7.02055H43.2584V7.01948ZM42.6416 39.022H39.2733C39.8386 40.4294 40.3835 41.7853 40.9682 43.2421C41.5485 41.7799 42.0849 40.4272 42.6416 39.022Z" fill="white"/>
<path d="M16.971 32.2576C13.6509 32.2576 10.3319 32.2598 7.01183 32.2565C6.18691 32.2565 5.63875 31.82 5.56688 31.1313C5.48428 30.3396 6.02707 29.7131 6.85843 29.6906C7.71446 29.667 8.57157 29.6831 9.42867 29.6831C15.2471 29.6831 21.0645 29.682 26.8829 29.6831C27.8151 29.6831 28.3729 30.1326 28.4105 30.8963C28.4502 31.6944 27.9042 32.2512 27.0363 32.2533C24.5551 32.2619 22.075 32.2576 19.5938 32.2576C18.7195 32.2576 17.8452 32.2576 16.9699 32.2576H16.971Z" fill="white"/>
<path d="M16.997 39.306C13.678 39.306 10.3579 39.3082 7.0389 39.3049C6.14103 39.3049 5.57249 38.8083 5.56069 38.0381C5.55103 37.3526 6.04234 36.8055 6.72673 36.7433C6.83293 36.7336 6.94021 36.7368 7.04748 36.7368C13.6683 36.7368 20.2902 36.7368 26.9111 36.7368C27.84 36.7368 28.3903 37.1927 28.4139 37.9662C28.4375 38.7568 27.8829 39.2996 27.0098 39.3028C24.7967 39.3114 22.5837 39.306 20.3707 39.306C19.2465 39.306 18.1223 39.306 16.998 39.306H16.997Z" fill="white"/>
<path d="M16.9743 25.2076C13.7626 25.2076 10.5509 25.2076 7.33912 25.2076C7.10742 25.2076 6.87356 25.2129 6.644 25.185C6.05186 25.111 5.60561 24.6262 5.56592 24.034C5.52408 23.4247 5.8695 22.883 6.44126 22.7221C6.67726 22.6556 6.93364 22.6416 7.18143 22.6416C13.7304 22.6373 20.2783 22.6384 26.8273 22.6405C27.0225 22.6405 27.222 22.6459 27.4119 22.6867C28.0545 22.8261 28.4492 23.3582 28.4127 24.0104C28.3763 24.6551 27.9129 25.1614 27.2521 25.1883C26.3971 25.2237 25.54 25.2076 24.6829 25.2086C22.1137 25.2108 19.5435 25.2086 16.9743 25.2086V25.2076Z" fill="white"/>
<path d="M17.0333 15.6021C20.3169 15.6021 23.5994 15.6 26.883 15.6042C27.8463 15.6053 28.4031 16.073 28.4149 16.8636C28.4245 17.5115 27.9954 18.0329 27.3507 18.1369C27.1405 18.1702 26.9238 18.1702 26.7103 18.1702C20.2332 18.1723 13.7561 18.1723 7.27902 18.1702C7.04838 18.1702 6.81239 18.168 6.58604 18.1284C5.95099 18.0146 5.53692 17.4772 5.56159 16.825C5.58412 16.206 6.02608 15.7126 6.65041 15.63C6.86173 15.6021 7.07735 15.6032 7.29082 15.6032C10.5379 15.6021 13.7861 15.6032 17.0333 15.6032V15.6021Z" fill="white"/>
<path d="M11.8896 8.56657C13.5834 8.56657 15.2783 8.56549 16.9722 8.56657C17.5278 8.56657 17.9344 8.82938 18.1564 9.32927C18.3603 9.78732 18.341 10.2883 17.973 10.623C17.693 10.8772 17.2693 11.1111 16.9078 11.1154C13.5738 11.1518 10.2376 11.1454 6.9036 11.1304C6.09584 11.1272 5.55841 10.5704 5.56055 9.83667C5.5627 9.0922 6.09477 8.57408 6.91433 8.56764C8.57276 8.55477 10.2312 8.56335 11.8896 8.56335V8.56549V8.56657Z" fill="white"/>
</g>
<defs>
<clipPath id="clip0_1118_3108">
<rect width="45.8503" height="48" fill="white"/>
</clipPath>
</defs>
</svg>
