<svg width="100" height="100" viewBox="0 0 100 100" fill="none" xmlns="http://www.w3.org/2000/svg">
<circle cx="50" cy="50" r="50" fill="#F36421"/>
<g clip-path="url(#clip0_1824_4551)">
<path d="M79.9998 44.9609C79.7666 45.3605 79.5978 45.8234 79.285 46.1445C78.617 46.8313 77.765 47.0164 76.8592 46.6836C75.9557 46.352 75.4518 45.6676 75.3299 44.7137C75.3006 44.4828 75.3123 44.2461 75.3123 44.0117C75.3123 39.2082 75.3182 34.4047 75.3088 29.6012C75.3041 27.2539 74.0291 25.5066 71.8518 24.8855C71.3713 24.7484 70.8521 24.6957 70.3506 24.6945C56.7803 24.6852 43.2088 24.684 29.6385 24.6887C26.7029 24.6887 24.6932 26.6867 24.6896 29.6094C24.6814 38.4348 24.6814 47.2613 24.6896 56.0867C24.692 59.0117 26.7006 61.0098 29.635 61.0109C43.2053 61.0168 56.7768 61.0156 70.3471 61.0109C73.1549 61.0109 75.0896 59.218 75.3041 56.4535C75.4131 55.0414 76.1537 54.1613 77.3678 54.002C78.5068 53.852 79.4455 54.4988 79.9295 55.7633C79.9424 55.7984 79.9752 55.8254 79.9998 55.8559V57.3793C79.8311 58.0355 79.7103 58.707 79.4877 59.3434C78.1213 63.2598 74.6279 65.6961 70.3834 65.6973C57.7904 65.702 45.1963 65.6996 32.6033 65.6984C31.4314 65.6984 30.2572 65.7441 29.09 65.6809C25.3869 65.4805 22.6471 63.7145 20.9783 60.4121C20.5049 59.4758 20.3186 58.393 20.001 57.3781C20.001 47.6902 20.001 38.0035 20.001 28.3156C20.0373 28.2289 20.0912 28.1457 20.1064 28.0555C20.6361 24.7648 22.4033 22.3602 25.3998 20.9234C26.3115 20.4863 27.3439 20.3012 28.3201 20C42.7729 20 57.2268 20 71.6795 20C71.7662 20.0363 71.8494 20.0902 71.9396 20.1055C75.235 20.6363 77.6385 22.4035 79.0764 25.4012C79.5135 26.3129 79.6986 27.3441 79.9998 28.3215V44.9621V44.9609Z" fill="white"/>
<path d="M80.0007 75.6649C79.5226 77.0653 78.5265 77.5598 77.0757 77.5551C67.3527 77.5258 57.6296 77.5364 47.9066 77.5446C47.1097 77.5446 46.3843 77.3981 45.8335 76.7887C45.2066 76.095 45.0214 75.2758 45.3484 74.3946C45.6824 73.4934 46.3667 72.9883 47.3218 72.87C47.5726 72.8395 47.8292 72.8524 48.0824 72.8524C57.7468 72.8524 67.4113 72.8664 77.0757 72.836C78.5253 72.8313 79.5226 73.3258 80.0007 74.7262V75.6637V75.6649Z" fill="white"/>
<path d="M20 74.7264C20.477 73.3284 21.4695 72.8081 22.9203 72.8362C25.7281 72.8889 28.5371 72.8596 31.3449 72.8362C31.5887 72.8338 31.9109 72.6897 32.0586 72.5022C33.4051 70.7936 35.5227 70.1901 37.5629 70.9729C39.3605 71.662 40.6332 73.6471 40.4926 75.5409C40.3285 77.7417 38.8555 79.4479 36.7344 79.8967C36.623 79.9202 36.5152 79.9647 36.4062 79.9987H35.1172C34.9918 79.9553 34.8676 79.9038 34.7398 79.8698C33.5809 79.571 32.6293 78.9545 31.9707 77.9514C31.7598 77.6303 31.5441 77.5272 31.1715 77.5295C28.4211 77.5448 25.6695 77.5002 22.9203 77.553C21.4707 77.5823 20.477 77.062 20 75.6639V74.7264Z" fill="white"/>
<path d="M41.9136 42.8438C41.9136 40.97 41.9066 39.095 41.9148 37.2212C41.9312 33.3868 45.6308 31.2376 48.9554 33.1442C52.2038 35.0075 55.4429 36.886 58.6714 38.7821C61.9808 40.7262 61.9726 44.9813 58.6585 46.9266C55.4453 48.811 52.2226 50.679 48.9929 52.5364C45.632 54.47 41.9289 52.3348 41.9136 48.4665C41.9066 46.5926 41.9124 44.7176 41.9124 42.8438H41.9136ZM46.6117 48.5028C49.8847 46.602 53.0722 44.7516 56.3476 42.8497C53.0464 40.9348 49.8578 39.0856 46.6117 37.2024V48.5028Z" fill="white"/>
</g>
<defs>
<clipPath id="clip0_1824_4551">
<rect width="60" height="60" fill="white" transform="translate(20 20)"/>
</clipPath>
</defs>
</svg>
