<svg width="178" height="50" viewBox="0 0 178 50" fill="none" xmlns="http://www.w3.org/2000/svg">
<rect width="178" height="50" rx="12" fill="#F36421"/>
<path d="M19 31V29.6295C19 27.9849 19.3869 26.487 20.1607 25.1358C20.9345 23.7843 21.9762 22.6724 23.2858 21.8003L20.6072 19.2345L21.8573 18L24.893 20.9078C25.504 20.6304 26.1618 20.4185 26.8662 20.2722C27.5704 20.1257 28.2806 20.0525 28.9969 20.0525C29.7132 20.0525 30.4246 20.1257 31.1311 20.2722C31.8373 20.4185 32.496 20.6304 33.107 20.9078L36.1427 18L37.3928 19.2345L34.7142 21.8003C36.0238 22.6724 37.0655 23.7843 37.8393 25.1358C38.6131 26.487 39 27.9849 39 29.6295V31H19ZM33.2858 28.263C33.6905 28.263 34.0298 28.1319 34.3037 27.8698C34.5774 27.6074 34.7142 27.2824 34.7142 26.8947C34.7142 26.5071 34.5774 26.182 34.3037 25.9196C34.0298 25.6575 33.6905 25.5264 33.2858 25.5264C32.8811 25.5264 32.5417 25.6575 32.2678 25.9196C31.9941 26.182 31.8573 26.5071 31.8573 26.8947C31.8573 27.2824 31.9941 27.6074 32.2678 27.8698C32.5417 28.1319 32.8811 28.263 33.2858 28.263ZM24.7142 28.263C25.1189 28.263 25.4583 28.1319 25.7322 27.8698C26.0059 27.6074 26.1427 27.2824 26.1427 26.8947C26.1427 26.5071 26.0059 26.182 25.7322 25.9196C25.4583 25.6575 25.1189 25.5264 24.7142 25.5264C24.3095 25.5264 23.9702 25.6575 23.6963 25.9196C23.4226 26.182 23.2858 26.5071 23.2858 26.8947C23.2858 27.2824 23.4226 27.6074 23.6963 27.8698C23.9702 28.1319 24.3095 28.263 24.7142 28.263Z" fill="white"/>
<path d="M46.392 30V19.008H50.184C53.736 19.008 56.264 21.28 56.264 24.496C56.264 27.712 53.736 30 50.184 30H46.392ZM48.008 28.528H50.28C52.824 28.528 54.6 26.864 54.6 24.496C54.6 22.144 52.824 20.48 50.28 20.48H48.008V28.528ZM62.2595 30.192C59.8915 30.192 57.8915 28.208 57.8915 25.856C57.8915 23.504 59.8915 21.536 62.2595 21.536C64.6115 21.536 66.5955 23.504 66.5955 25.856C66.5955 28.208 64.6115 30.192 62.2595 30.192ZM62.2595 28.816C63.7475 28.816 65.0115 27.472 65.0115 25.856C65.0115 24.256 63.7475 22.912 62.2595 22.912C60.7395 22.912 59.4755 24.256 59.4755 25.856C59.4755 27.472 60.7395 28.816 62.2595 28.816ZM70.2011 30L67.4171 21.728H69.0331L70.9371 27.888L72.9851 21.728H74.3291L76.3771 27.888L78.2651 21.728H79.8811L77.0971 30H75.6411L73.6571 23.856L71.6571 30H70.2011ZM85.6881 21.536C87.5121 21.536 88.7921 22.864 88.7921 24.736V30H87.2401V25.008C87.2401 23.776 86.4561 22.912 85.3361 22.912C84.1841 22.912 83.1921 23.664 83.0641 24.64V30H81.4801V21.728H83.0641V22.928C83.5601 22.112 84.5681 21.536 85.6881 21.536ZM91.0583 30V18.816H92.6263V30H91.0583ZM98.8533 30.192C96.4853 30.192 94.4853 28.208 94.4853 25.856C94.4853 23.504 96.4853 21.536 98.8533 21.536C101.205 21.536 103.189 23.504 103.189 25.856C103.189 28.208 101.205 30.192 98.8533 30.192ZM98.8533 28.816C100.341 28.816 101.605 27.472 101.605 25.856C101.605 24.256 100.341 22.912 98.8533 22.912C97.3333 22.912 96.0693 24.256 96.0693 25.856C96.0693 27.472 97.3333 28.816 98.8533 28.816ZM108.515 21.536C110.739 21.536 111.971 22.944 111.971 24.992V30H110.419V28.864C109.811 29.728 108.675 30.192 107.667 30.192C105.907 30.192 104.611 29.168 104.611 27.552C104.611 25.904 106.099 24.8 107.923 24.8C108.739 24.8 109.619 24.976 110.419 25.248V24.992C110.419 23.952 109.939 22.848 108.291 22.848C107.475 22.848 106.675 23.168 105.955 23.536L105.379 22.368C106.563 21.776 107.603 21.536 108.515 21.536ZM107.971 28.944C108.995 28.944 110.147 28.432 110.419 27.408V26.304C109.747 26.096 108.979 25.984 108.163 25.984C107.059 25.984 106.131 26.608 106.131 27.504C106.131 28.4 106.931 28.944 107.971 28.944ZM120.629 18.816H122.197V30H120.629V28.56C119.989 29.584 118.965 30.192 117.685 30.192C115.509 30.192 113.877 28.4 113.877 25.856C113.877 23.328 115.509 21.536 117.685 21.536C118.965 21.536 119.989 22.144 120.629 23.152V18.816ZM118.069 28.816C119.557 28.816 120.629 27.584 120.629 25.856C120.629 24.128 119.557 22.912 118.069 22.912C116.549 22.912 115.477 24.128 115.477 25.856C115.477 27.584 116.549 28.816 118.069 28.816ZM137.856 30L136.896 27.76H131.168L130.208 30H128.416L133.136 19.008H134.928L139.648 30H137.856ZM131.792 26.304H136.272L134.032 21.088L131.792 26.304ZM145.807 21.536C147.983 21.536 149.615 23.328 149.615 25.856C149.615 28.4 147.983 30.192 145.807 30.192C144.527 30.192 143.503 29.584 142.863 28.56V32.752H141.295V21.728H142.863V23.152C143.503 22.144 144.527 21.536 145.807 21.536ZM145.423 28.816C146.943 28.816 148.015 27.584 148.015 25.856C148.015 24.128 146.943 22.912 145.423 22.912C143.935 22.912 142.863 24.128 142.863 25.856C142.863 27.584 143.935 28.816 145.423 28.816ZM156.119 21.536C158.295 21.536 159.927 23.328 159.927 25.856C159.927 28.4 158.295 30.192 156.119 30.192C154.839 30.192 153.815 29.584 153.175 28.56V32.752H151.607V21.728H153.175V23.152C153.815 22.144 154.839 21.536 156.119 21.536ZM155.735 28.816C157.255 28.816 158.327 27.584 158.327 25.856C158.327 24.128 157.255 22.912 155.735 22.912C154.247 22.912 153.175 24.128 153.175 25.856C153.175 27.584 154.247 28.816 155.735 28.816Z" fill="white"/>
</svg>
