<svg width="102" height="102" viewBox="0 0 102 102" fill="none" xmlns="http://www.w3.org/2000/svg">
<circle cx="51" cy="51" r="51" fill="#F36421"/>
<g clip-path="url(#clip0_2406_3485)">
<path d="M42.8132 38.4403C42.7981 38.1907 42.7797 38.0337 42.7797 37.8777C42.7776 35.5465 42.7711 33.2153 42.7797 30.8841C42.7873 28.9025 44.1488 27.5481 46.1442 27.547C55.3255 27.5416 64.5057 27.5416 73.687 27.547C75.7276 27.5481 77.0579 28.8842 77.06 30.9196C77.0643 36.3533 77.0643 41.787 77.06 47.2208C77.0589 49.2088 75.706 50.5772 73.7161 50.5783C64.5175 50.5847 55.319 50.5847 46.1194 50.5783C44.1326 50.5761 42.7841 49.1991 42.7765 47.2132C42.7744 46.6807 42.7765 46.1482 42.7765 45.5921C43.5484 45.5404 44.2598 45.492 45.0414 45.4393C45.0414 46.0041 45.0371 46.5732 45.0414 47.1422C45.0489 47.9867 45.3745 48.3202 46.2186 48.3202C55.3632 48.3224 64.5078 48.3234 73.6535 48.3202C74.462 48.3202 74.7962 47.9813 74.7962 47.1713C74.7984 41.7731 74.7984 36.3759 74.7962 30.9776C74.7962 30.117 74.4879 29.8072 73.632 29.8072C64.5046 29.8061 55.3783 29.8061 46.2509 29.8072C45.3605 29.8072 45.0435 30.1203 45.0414 30.9981C45.0381 33.2034 45.0306 35.4098 45.0489 37.6152C45.0522 38.01 44.9573 38.2069 44.5369 38.2381C43.9731 38.28 43.4115 38.3682 42.8121 38.4414L42.8132 38.4403Z" fill="white"/>
<path d="M37.3767 40.7485C37.3767 43.4713 37.3767 46.1941 37.3767 48.9169C37.3767 50.4994 37.2592 50.6166 35.6605 50.6177C33.9896 50.6177 32.3188 50.622 30.6479 50.6166C29.7865 50.6134 29.4922 50.3111 29.4922 49.443C29.4901 46.9859 29.4922 44.5299 29.4922 42.0728C29.4922 41.8985 29.4922 41.7232 29.4922 41.3994C29.0222 41.9932 28.8088 42.5483 28.7538 43.1443C28.6158 44.6601 28.5005 46.1791 28.4089 47.6991C28.3614 48.4952 28.1016 49.1374 27.3427 49.4838C26.421 49.9034 24.9787 49.1288 25.0002 48.1068C25.052 45.695 25.0143 43.2497 25.8562 40.9379C26.434 39.3511 27.3169 37.9225 28.7441 36.9468C29.2626 36.5928 29.904 36.4099 30.5023 36.183C30.8139 36.0646 31.0122 36.1862 31.1362 36.5369C31.5049 37.5836 31.9167 38.6153 32.3144 39.6513C32.3435 39.7276 32.3996 39.7943 32.4815 39.9299C32.6454 39.193 32.8071 38.5367 32.9278 37.8719C32.9515 37.7418 32.8243 37.5815 32.7607 37.4384C32.7047 37.3125 32.5796 37.1867 32.5882 37.0694C32.612 36.7628 32.6206 36.2486 32.7661 36.1991C33.1456 36.07 33.6113 36.0721 34.0123 36.1604C34.3454 36.2335 34.3314 37.1479 34.036 37.4459C33.9498 37.5331 33.8312 37.6708 33.8484 37.7622C33.9821 38.455 34.146 39.1424 34.4122 39.8417C34.7917 38.8476 35.1711 37.8536 35.5506 36.8596C35.861 36.0463 35.8966 35.9592 36.6954 36.2884C37.5438 36.638 38.3674 37.106 39.1058 37.6503C39.8065 38.1678 40.4113 38.8272 41.0063 39.4716C41.5097 40.017 42.1016 40.2774 42.8206 40.2279C43.6075 40.1741 44.3945 40.102 45.1738 39.9826C46.1645 39.8298 47.0064 40.3473 47.1994 41.2854C47.3978 42.2492 46.876 43.0797 45.8842 43.2917C44.4893 43.5886 43.0804 43.7069 41.6574 43.4907C40.6549 43.3379 39.7569 42.97 39.0357 42.2363C38.5237 41.7157 38.017 41.1885 37.5071 40.6646C37.4629 40.6926 37.4187 40.7195 37.3745 40.7475L37.3767 40.7485Z" fill="white"/>
<path d="M54.8261 67.7307C54.8962 69.6649 54.9662 71.5991 55.0363 73.5323C55.0794 74.7307 54.8239 74.9943 53.6198 74.9943C52.0211 74.9943 50.4225 74.9975 48.8238 74.9921C47.928 74.99 47.583 74.6393 47.6078 73.7432C47.6639 71.7368 47.7318 69.7305 47.6855 67.679C47.5205 68.1093 47.3071 68.5278 47.2004 68.9721C46.9147 70.1555 46.6721 71.3485 46.4177 72.5394C46.1644 73.7238 45.1522 74.2595 44.1669 73.713C43.5945 73.3957 43.3045 72.8944 43.3896 72.2403C43.7712 69.2959 44.5614 66.4881 46.2377 63.988C46.8425 63.0865 47.665 62.5153 48.7785 62.5013C50.5195 62.4798 52.2615 62.482 54.0036 62.5045C55.032 62.5175 55.8373 63.022 56.3978 63.8514C58.1097 66.387 59.0464 69.198 59.2502 72.2457C59.3116 73.1644 58.7651 73.8325 57.9544 73.9411C57.1039 74.0541 56.4474 73.5506 56.2372 72.6071C55.9795 71.4539 55.7489 70.2942 55.4729 69.1453C55.3543 68.6515 55.1538 68.176 54.991 67.693C54.936 67.7059 54.8811 67.7188 54.825 67.7317L54.8261 67.7307Z" fill="white"/>
<path d="M36.8977 67.7307C36.958 69.6994 37.0173 71.667 37.0799 73.6357C37.1133 74.7028 36.8427 74.9911 35.7852 74.9922C34.1865 74.9944 32.5878 74.9933 30.9892 74.9922C29.9403 74.9922 29.6363 74.6469 29.6449 73.5829C29.6611 71.6304 29.6492 69.6779 29.6492 67.7619C29.5145 68.1255 29.301 68.5623 29.1889 69.0249C28.9043 70.2082 28.6672 71.4023 28.4063 72.5922C28.2705 73.2118 27.9449 73.6765 27.3057 73.8648C26.7279 74.0348 26.2428 73.8347 25.8234 73.456C25.4321 73.1031 25.3275 72.6395 25.3987 72.1296C25.8019 69.2454 26.5737 66.4882 28.2101 64.0301C28.8235 63.1081 29.646 62.5154 30.7811 62.5003C32.5048 62.4766 34.2286 62.4766 35.9523 62.4992C37.1122 62.5143 37.9401 63.1275 38.5556 64.0699C40.1877 66.5721 41.0102 69.3465 41.3067 72.2931C41.3875 73.0945 40.8442 73.7949 40.0702 73.9336C39.2844 74.0756 38.5492 73.6314 38.3508 72.8213C38.0403 71.5519 37.7913 70.2674 37.4884 68.9969C37.3828 68.5526 37.1941 68.1288 37.0432 67.6952C36.9947 67.7071 36.9451 67.72 36.8966 67.7318L36.8977 67.7307Z" fill="white"/>
<path d="M73.0095 67.6467C73.0095 68.9817 73.0009 70.2447 73.0128 71.5076C73.0203 72.3145 73.0667 73.1202 73.0796 73.926C73.0904 74.6091 72.7648 74.9781 72.0825 74.9856C70.2865 75.0039 68.4906 75.0039 66.6946 74.9878C65.9832 74.9813 65.6188 74.5488 65.6425 73.7818C65.6986 71.9906 65.7708 70.1995 65.8333 68.4083C65.8409 68.1803 65.8344 67.9511 65.8344 67.723C65.7816 67.7091 65.7287 67.694 65.6759 67.68C65.4463 68.4503 65.1876 69.213 64.9946 69.9929C64.7801 70.8611 64.6313 71.7454 64.4416 72.62C64.2487 73.5118 63.5145 74.0604 62.7459 73.9012C61.7876 73.7033 61.3068 72.9696 61.4567 72.0003C61.8706 69.326 62.5885 66.7624 63.9802 64.4064C64.6486 63.2758 65.5131 62.5088 66.8757 62.4905C68.5272 62.4679 70.1798 62.4722 71.8313 62.4862C73.0979 62.4969 73.9743 63.1521 74.6341 64.1967C75.9848 66.3374 76.7793 68.673 77.162 71.1612C77.2083 71.4614 77.2816 71.7583 77.3345 72.0573C77.4951 72.9588 77.0003 73.7173 76.1239 73.9217C75.3013 74.1132 74.537 73.629 74.3204 72.7222C74.0239 71.4861 73.7857 70.2371 73.4892 69.0021C73.3814 68.5503 73.1799 68.12 73.0095 67.6477V67.6467Z" fill="white"/>
<path d="M33.3911 53.2734C35.587 53.2713 37.3721 55.0442 37.3753 57.228C37.3775 59.4118 35.602 61.1976 33.4126 61.2116C31.2469 61.2256 29.4294 59.4204 29.4219 57.2484C29.4144 55.0732 31.2103 53.2745 33.3911 53.2734Z" fill="white"/>
<path d="M51.4119 53.2735C53.5991 53.2799 55.3811 55.0689 55.3746 57.2527C55.3681 59.428 53.5582 61.2234 51.3839 61.2116C49.2042 61.1998 47.4082 59.3935 47.419 57.2237C47.4298 55.042 49.2236 53.267 51.413 53.2735H51.4119Z" fill="white"/>
<path d="M69.3969 53.2734C71.583 53.2745 73.3714 55.0581 73.3747 57.2409C73.3768 59.4097 71.5669 61.2159 69.3936 61.2127C67.2139 61.2084 65.4169 59.4118 65.418 57.2377C65.419 55.0592 67.2128 53.2724 69.3969 53.2734Z" fill="white"/>
<path d="M33.4171 27C35.6173 27.0086 37.3819 28.7783 37.3755 30.9707C37.369 33.1545 35.572 34.9306 33.3847 34.9145C31.1867 34.8984 29.4112 33.118 29.4209 30.9384C29.4296 28.7546 31.219 26.9914 33.4171 27Z" fill="white"/>
<path d="M58.5259 34.9994C55.723 34.9994 52.9211 35.0013 50.1183 34.9984C49.4636 34.9984 49.0631 34.6734 49.0064 34.1194C48.9478 33.5545 49.2964 33.0896 49.8415 33.0201C50.0125 32.9986 50.1872 33.0005 50.3601 33.0005C55.7608 33.0005 61.1606 33.0005 66.5613 33.0005C66.7502 33.0005 66.9401 32.9956 67.1271 33.0162C67.6297 33.072 68.0009 33.4988 68 34.0009C67.9981 34.4982 67.6174 34.9328 67.1224 34.9876C66.9665 35.0052 66.8078 34.9974 66.6501 34.9974C63.9417 34.9974 61.2342 34.9974 58.5259 34.9974V34.9994Z" fill="white"/>
<path d="M55.4846 39.9998C53.5779 39.9998 51.6711 40.0008 49.7644 39.9979C49.3029 39.9979 49.0256 39.6523 49.0016 39.0682C48.9758 38.4498 49.2563 38.012 49.7062 38.0061C50.5464 37.9953 51.3867 38.0022 52.227 38.0022C55.1783 38.0022 58.1302 38.0022 61.0815 38.0022C61.6826 38.0022 62.0038 38.3516 62 39.0044C61.9961 39.6572 61.6774 39.9998 61.075 39.9998C59.2116 39.9998 57.3481 39.9998 55.484 39.9998H55.4846Z" fill="white"/>
<path d="M57.9786 43.0005C60.5293 43.0005 63.08 43.0005 65.6307 43.0005C65.7945 43.0005 65.9591 42.9966 66.1229 43.0103C66.6268 43.0534 66.9982 43.4735 67 43.9944C67.0018 44.5115 66.6259 44.958 66.1292 44.9854C65.6826 45.0099 65.2342 44.9962 64.7867 44.9962C59.969 44.9962 55.1514 44.9962 50.3337 44.9962C50.1547 44.9962 49.9739 45.004 49.7976 44.9825C49.3206 44.9227 48.9912 44.4997 49.0002 43.9768C49.0082 43.4725 49.3295 43.0769 49.7913 43.0181C49.9533 42.9976 50.1189 43.0015 50.2827 43.0015C52.8486 43.0015 55.4136 43.0015 57.9795 43.0005H57.9786Z" fill="white"/>
</g>
<defs>
<clipPath id="clip0_2406_3485">
<rect width="52.3636" height="48" fill="white" transform="translate(25 27)"/>
</clipPath>
</defs>
</svg>
