<svg width="209" height="28" viewBox="0 0 209 28" fill="none" xmlns="http://www.w3.org/2000/svg">
<path d="M1.72684 0.0161743C2.22035 0.0161743 2.63759 0.187557 2.9808 0.530323C3.32312 0.873087 3.4945 1.29078 3.4945 1.78384V26.2458C3.4945 26.712 3.32312 27.1162 2.9808 27.4585C2.63759 27.8017 2.22035 27.9727 1.72684 27.9727C1.26025 27.9727 0.856465 27.8017 0.514148 27.4585C0.170934 27.1162 0 26.712 0 26.2458V1.78384C0 1.29078 0.170934 0.873087 0.514148 0.530323C0.856465 0.187557 1.26025 0.0161743 1.72684 0.0161743Z" fill="white"/>
<path d="M50.6831 24.4782C53.5612 24.4782 56.0278 23.4575 58.0835 21.4152C60.1388 19.3739 61.1666 16.9001 61.1666 13.9946C61.1666 11.1166 60.1388 8.64992 58.0835 6.59422C56.0278 4.53897 53.5612 3.51112 50.6831 3.51112C47.7777 3.51112 45.3038 4.53897 43.2625 6.59422C41.2203 8.64992 40.1996 11.1166 40.1996 13.9946C40.1996 16.9001 41.2203 19.3739 43.2625 21.4152C45.3038 23.4575 47.7777 24.4782 50.6831 24.4782ZM50.6831 0.0166206C54.5199 0.0166206 57.8089 1.3805 60.5502 4.10693C63.2905 6.8347 64.6611 10.13 64.6611 13.9946C64.6611 17.8593 63.2905 21.155 60.5502 23.8819C57.8089 26.6097 54.5199 27.9727 50.6831 27.9727C46.8185 27.9727 43.5227 26.6097 40.7958 23.8819C38.0681 21.155 36.7051 17.8593 36.7051 13.9946C36.7051 10.13 38.0681 6.8347 40.7958 4.10693C43.5227 1.3805 46.8185 0.0166206 50.6831 0.0166206Z" fill="white"/>
<path d="M110.068 27.4585C109.725 27.8017 109.321 27.9727 108.856 27.9727C108.17 27.9727 107.649 27.6712 107.293 27.0682L96.6035 5.68975L90.7658 17.3653L90.6837 17.4887H100.098C100.592 17.4887 101.01 17.6605 101.352 18.0028C101.695 18.3456 101.866 18.7633 101.866 19.2568C101.866 19.723 101.695 20.1272 101.352 20.4695C101.01 20.8127 100.592 20.9832 100.098 20.9832H88.9568L85.9146 27.0682C85.5583 27.6712 85.0514 27.9727 84.3932 27.9727C83.9001 27.9727 83.4824 27.8017 83.1397 27.4585C82.7969 27.1162 82.626 26.712 82.626 26.2458C82.626 25.9443 82.6942 25.6563 82.8315 25.3822L95.0826 0.920645C95.4384 0.318111 95.9458 0.0161743 96.6035 0.0161743C97.2617 0.0161743 97.7817 0.318111 98.1662 0.920645L110.377 25.3822L110.458 25.5468C110.541 25.7667 110.582 25.9991 110.582 26.2458C110.582 26.712 110.41 27.1162 110.068 27.4585Z" fill="white"/>
<path d="M62.8985 0.530323C63.2421 0.187107 63.6459 0.0161743 64.1112 0.0161743C64.7971 0.0161743 65.318 0.317663 65.6738 0.920645L76.3632 22.2991L87.0522 0.920645C87.4084 0.317663 87.9154 0.0161743 88.5736 0.0161743C89.0666 0.0161743 89.4843 0.187107 89.8271 0.530323C90.1699 0.872639 90.3408 1.27687 90.3408 1.74301C90.3408 2.0445 90.2726 2.33253 90.1353 2.60666L77.8841 27.0682C77.5284 27.6707 77.0209 27.9727 76.3632 27.9727C75.7051 27.9727 75.1851 27.6707 74.8006 27.0682L62.5902 2.60666L62.5086 2.442C62.426 2.22217 62.3848 1.98977 62.3848 1.74301C62.3848 1.27687 62.5566 0.872639 62.8985 0.530323Z" fill="white"/>
<path d="M181.647 27.4585C181.304 27.8017 180.9 27.9727 180.435 27.9727C179.749 27.9727 179.228 27.6712 178.872 27.0682L168.183 5.68975L162.345 17.3653L162.263 17.4887H171.677C172.171 17.4887 172.589 17.6605 172.931 18.0028C173.274 18.3456 173.445 18.7633 173.445 19.2568C173.445 19.723 173.274 20.1272 172.931 20.4695C172.589 20.8127 172.171 20.9832 171.677 20.9832H160.536L157.494 27.0682C157.137 27.6712 156.63 27.9727 155.972 27.9727C155.479 27.9727 155.062 27.8017 154.719 27.4585C154.376 27.1162 154.205 26.712 154.205 26.2458C154.205 25.9443 154.273 25.6563 154.411 25.3822L166.662 0.920645C167.018 0.318111 167.525 0.0161743 168.183 0.0161743C168.841 0.0161743 169.361 0.318111 169.745 0.920645L181.956 25.3822L182.037 25.5468C182.12 25.7667 182.161 25.9991 182.161 26.2458C182.161 26.712 181.989 27.1162 181.647 27.4585Z" fill="white"/>
<path d="M161.338 2.97634C161.023 3.3052 160.632 3.48376 160.167 3.51068H151.327V26.3284C151.3 26.7945 151.122 27.1848 150.792 27.4998C150.464 27.8152 150.066 27.9727 149.601 27.9727C149.107 27.9727 148.69 27.8017 148.347 27.4585C148.003 27.1166 147.832 26.712 147.832 26.2458V3.51068H139.035C138.569 3.48376 138.171 3.3052 137.842 2.97634C137.514 2.64748 137.349 2.25043 137.349 1.78429C137.349 1.29078 137.52 0.873537 137.863 0.530323C138.206 0.188005 138.624 0.0161743 139.117 0.0161743H160.084C160.578 0.0161743 160.989 0.188005 161.317 0.530323C161.646 0.873537 161.811 1.29078 161.811 1.78429C161.811 2.25043 161.653 2.64748 161.338 2.97634Z" fill="white"/>
<path d="M208.924 26.2458C208.924 26.712 208.759 27.1162 208.43 27.4585C208.102 27.8017 207.691 27.9727 207.197 27.9727C206.649 27.9727 206.196 27.7672 205.84 27.3558L187.997 6.51212V26.2458C187.997 26.712 187.826 27.1162 187.484 27.4585C187.141 27.8017 186.724 27.9727 186.23 27.9727C185.737 27.9727 185.325 27.8017 184.996 27.4585C184.668 27.1162 184.503 26.712 184.503 26.2458V1.78429C184.503 1.29078 184.668 0.873087 184.996 0.530323C185.325 0.187557 185.737 0.0161743 186.23 0.0161743C186.75 0.0161743 187.189 0.222103 187.546 0.633062L187.586 0.673889L205.47 21.518V1.78429C205.47 1.29078 205.635 0.873087 205.963 0.530323C206.292 0.187557 206.704 0.0161743 207.197 0.0161743C207.691 0.0161743 208.102 0.187557 208.43 0.530323C208.759 0.873087 208.924 1.29078 208.924 1.78429V26.2458Z" fill="white"/>
<path d="M20.4297 0C16.422 0 12.8144 1.74344 10.3226 4.51069V1.76767C10.3226 1.2746 10.1512 0.856915 9.80893 0.514149C9.46571 0.171383 9.04803 0 8.55496 0C8.08837 0 7.68459 0.171383 7.34227 0.514149C6.99906 0.856915 6.82812 1.2746 6.82812 1.76767V13.6012V26.2296V26.2525C6.82812 27.218 7.61056 28 8.5756 28C9.54064 28 10.3231 27.218 10.3231 26.2525V13.6012C10.3231 8.02897 14.8571 3.49495 20.4297 3.49495C26.0024 3.49495 30.5364 8.02897 30.5364 13.6012V26.2525C30.5364 27.218 31.3188 28 32.2839 28C33.2489 28 34.0313 27.218 34.0313 26.2525V13.6012C34.0313 6.10159 27.9297 0 20.4297 0Z" fill="white"/>
<path d="M24.3006 26.2732C24.3006 26.7393 24.1293 27.1435 23.7865 27.4859C23.4437 27.8291 23.026 28 22.533 28C22.0664 28 21.6626 27.8291 21.3198 27.4859C20.9771 27.1435 20.8061 26.7393 20.8061 26.2732V19.2842C20.8061 18.6543 20.7097 18.0647 20.5181 17.516C20.436 17.3518 20.3674 17.1876 20.3126 17.023C19.7644 15.8991 18.9286 15.0772 17.8047 14.5563C17.6405 14.4738 17.4763 14.406 17.3116 14.3504C16.7629 14.1319 16.1739 14.0215 15.5435 14.0215C14.9405 14.0215 14.3649 14.1319 13.8171 14.3504C13.6525 14.406 13.4739 14.4738 13.2823 14.5563C12.1863 15.0772 11.3639 15.8991 10.8157 17.023C10.7336 17.1876 10.6649 17.3518 10.6102 17.516C10.4182 18.0647 10.3226 18.6543 10.3226 19.2842V26.2732C10.3226 26.7393 10.1535 27.1458 9.81117 27.4881C9.46796 27.8313 9.04803 28 8.55451 28C8.08837 28 7.68414 27.8291 7.34182 27.4859C6.99906 27.1435 6.82812 26.7393 6.82812 26.2732V12.2951C6.82812 11.8016 6.99906 11.3839 7.34182 11.0412C7.68414 10.6989 8.08837 10.527 8.55451 10.527C9.04803 10.527 9.46572 10.6989 9.80848 11.0412C10.1508 11.3839 10.3226 11.8016 10.3226 12.2951C11.145 11.6648 12.0759 11.1991 13.1181 10.8972C13.3371 10.8151 13.5704 10.7603 13.8171 10.7325C14.3927 10.5961 14.9684 10.527 15.5435 10.527C16.1465 10.527 16.736 10.5961 17.3116 10.7325C17.5306 10.7603 17.7639 10.8151 18.0106 10.8972C19.0241 11.1991 19.9564 11.6648 20.8061 12.2951C21.4639 12.7882 22.0395 13.3638 22.533 14.0215C23.1629 14.8717 23.6286 15.8036 23.9305 16.8175C24.0126 17.0643 24.0808 17.2971 24.136 17.516C24.2455 18.0917 24.3006 18.6816 24.3006 19.2842V26.2732Z" fill="#FF601E"/>
<path d="M131.634 18.4344C132.1 18.2155 132.552 17.9687 132.99 17.6946C133.292 17.5031 133.593 17.2837 133.896 17.0369C134.004 16.9544 134.115 16.8588 134.224 16.7489C134.58 16.4478 134.896 16.1185 135.17 15.7623C135.608 15.2419 135.978 14.6932 136.28 14.1176C136.307 14.0906 136.321 14.0498 136.321 13.9946C136.375 13.9399 136.417 13.8713 136.444 13.7892C136.801 13.0767 137.061 12.3091 137.226 11.4867C137.28 11.1578 137.321 10.8285 137.349 10.4997C137.375 10.1986 137.39 9.91061 137.39 9.63649C137.39 9.41755 137.375 9.21207 137.349 9.02005C137.349 8.71856 137.321 8.43098 137.267 8.15641V8.11558C137.212 7.73199 137.129 7.36185 137.02 7.00518C136.964 6.84098 136.91 6.67632 136.856 6.51212C136.499 5.41608 135.951 4.4295 135.211 3.55195L135.17 3.51068C135.17 3.48376 135.156 3.45639 135.129 3.42857C134.772 3.01761 134.389 2.63402 133.977 2.27735C133.95 2.25043 133.922 2.23652 133.896 2.23652L133.854 2.19525C132.976 1.4828 131.99 0.934998 130.895 0.550957C130.73 0.496222 130.565 0.441488 130.401 0.386305C130.045 0.277285 129.674 0.194733 129.291 0.139549H129.25C128.975 0.0852623 128.687 0.0574474 128.387 0.0574474C128.194 0.030529 127.989 0.0161705 127.77 0.0161705H114.655C114.189 0.0161705 113.785 0.188004 113.442 0.530321C113.099 0.873087 112.929 1.29078 112.929 1.78428V26.2458C112.929 26.712 113.099 27.1166 113.442 27.4585C113.785 27.8017 114.189 27.9727 114.655 27.9727C115.148 27.9727 115.566 27.8017 115.909 27.4585C116.251 27.1166 116.423 26.712 116.423 26.2458V5.27879V5.03204C116.424 5.02889 116.425 5.02665 116.425 5.02351V3.99566C116.425 3.72782 116.642 3.51112 116.91 3.51112H118.189L118.19 3.51068H127.77C127.961 3.51068 128.153 3.52503 128.346 3.55195C128.783 3.57977 129.195 3.66187 129.578 3.79871C129.88 3.88081 130.154 3.97727 130.401 4.08674C130.51 4.14192 130.62 4.19621 130.73 4.25094C131.771 4.82656 132.579 5.64848 133.155 6.7176C133.21 6.7997 133.265 6.89616 133.32 7.00518C133.429 7.27975 133.525 7.55387 133.607 7.82755C133.744 8.21159 133.827 8.623 133.854 9.06088C133.881 9.2529 133.896 9.44492 133.896 9.63649C133.896 9.93843 133.868 10.2265 133.813 10.4997C133.785 10.8016 133.731 11.0897 133.649 11.3633C133.346 12.3777 132.813 13.2544 132.045 13.9946C131.579 14.4608 131.031 14.8444 130.401 15.1454C130.072 15.3101 129.715 15.4474 129.332 15.5568C128.839 15.6941 128.317 15.7623 127.77 15.7623H125.138H125.015H119.342C118.849 15.7623 118.43 15.927 118.088 16.2558C117.744 16.5842 117.574 16.9956 117.574 17.4891C117.574 17.9822 117.744 18.4003 118.088 18.7427C118.43 19.0859 118.849 19.2568 119.342 19.2568H127.811L134.307 27.3558C134.662 27.7672 135.102 27.9727 135.622 27.9727C136.115 27.9727 136.533 27.8017 136.876 27.4585C137.218 27.1166 137.39 26.712 137.39 26.2458C137.39 25.8375 137.271 25.4881 137.032 25.1982C137.015 25.1771 131.634 18.4344 131.634 18.4344Z" fill="white"/>
</svg>
