<svg width="54" height="60" viewBox="0 0 54 60" fill="none" xmlns="http://www.w3.org/2000/svg">
<g clip-path="url(#clip0_1264_2379)">
<path d="M34.0974 60.0006C30.5644 60.0006 27.0297 60.0006 23.4967 60.0006C22.3552 60.0006 22.1279 59.8142 21.8989 58.7152C21.6402 57.472 21.3815 56.2288 21.1262 54.9838C20.8815 53.7934 20.3466 53.3503 19.1333 53.3485C17.345 53.345 15.5567 53.3644 13.7683 53.3433C9.86472 53.2975 6.87715 50.7039 6.22509 46.8319C5.87197 44.7359 5.49262 42.6452 5.14999 40.5492C5.07482 40.0902 4.87902 39.8265 4.44549 39.6471C3.60113 39.2954 2.77776 38.8928 1.95264 38.4936C0.0506652 37.5705 -0.566428 35.4744 0.568114 33.6826C1.88971 31.5937 3.26025 29.5346 4.58009 27.4421C4.77588 27.1326 4.89825 26.7176 4.89651 26.3519C4.88252 23.5191 4.93147 20.7004 5.64821 17.9292C8.0449 8.65187 15.6388 1.66751 25.0823 0.33465C32.0189 -0.644777 38.6059 0.431362 44.3048 4.81856C51.5001 10.3575 54.687 17.7516 53.8759 26.839C53.5489 30.5017 52.3043 33.8725 50.4006 37.0042C49.1157 39.1178 47.8762 41.2596 46.5476 43.3433C44.7139 46.22 44.2296 49.2831 45.004 52.5959C45.4586 54.5355 45.8292 56.4943 46.2312 58.4461C46.4428 59.4766 46.025 59.9935 44.9586 59.9953C41.3382 60.0023 37.7161 59.9988 34.0957 59.9988L34.0974 60.0006ZM43.9692 57.894C43.6457 56.3361 43.3923 54.8713 43.0356 53.4329C42.013 49.313 42.6091 45.5008 44.9464 41.9366C46.2522 39.9443 47.4217 37.8606 48.6646 35.8244C50.4845 32.8404 51.6417 29.6084 51.8568 26.1215C52.3987 17.319 49.0125 10.3927 41.6651 5.55885C36.5116 2.1669 30.7585 1.57608 24.813 2.5221C16.5478 3.83738 9.57627 10.4525 7.63234 18.6097C6.98378 21.3317 7.01 24.0836 6.98728 26.846C6.98378 27.2961 6.83519 27.8043 6.59744 28.1859C5.24963 30.3364 3.85287 32.4553 2.47533 34.5882C1.83027 35.587 2.01732 36.2112 3.10466 36.7211C4.11159 37.1924 5.11327 37.676 6.12894 38.1279C6.65338 38.3617 6.94183 38.7099 7.03972 39.2972C7.44005 41.6956 7.88233 44.0853 8.29663 46.482C8.80359 49.415 10.9241 51.2297 13.8907 51.242C15.7227 51.249 17.5548 51.2297 19.3868 51.2473C21.2871 51.2666 22.7083 52.4482 23.1104 54.3104C23.3184 55.274 23.5719 56.2306 23.703 57.2047C23.7869 57.8254 24.0736 57.9081 24.6085 57.9063C30.8022 57.8905 36.9958 57.8958 43.1895 57.8958H43.9692V57.894Z" fill="white"/>
<path d="M41.3557 17.8561C41.3085 20.8084 40.1827 23.6482 37.9224 26.0238C37.5151 26.4529 37.0518 26.6146 36.5186 26.2858C36.0693 26.008 35.9295 25.5631 36.0938 25.0866C36.1882 24.8123 36.4207 24.5766 36.6235 24.3516C40.9467 19.516 39.8226 12.0322 34.2758 8.7458C29.7096 6.03963 23.4356 7.5202 20.913 11.8986C19.1037 15.0373 19.9305 19.1291 22.822 21.343C25.7448 23.5796 29.9019 23.2895 32.4315 20.6695C34.1097 18.9322 34.1446 16.1803 32.5084 14.4131C30.8896 12.6653 28.1835 12.4824 26.348 13.9981C25.4477 14.7419 25.2624 15.8022 25.8969 16.597C26.5263 17.3883 27.514 17.4534 28.4562 16.7658C29.0488 16.3333 29.6379 16.3632 30.0225 16.8467C30.4089 17.3303 30.311 17.9194 29.7656 18.4099C28.2971 19.7287 25.855 19.6197 24.4809 18.1743C23.0772 16.6973 23.0789 14.3533 24.4862 12.8728C26.9318 10.3002 31.0417 10.193 33.6936 12.6319C36.2949 15.0268 36.5693 19.2083 34.1953 21.823C31.5871 24.6945 28.2989 25.637 24.6173 24.5538C20.906 23.4618 18.6317 20.8559 18.0058 16.9962C17.2839 12.5545 19.5896 8.57875 23.9408 6.47043C32.0049 2.56328 41.3942 8.52248 41.361 17.8561H41.3557Z" fill="white"/>
<path d="M13.6467 29.2707C12.2639 29.2707 11.1154 28.9225 10.0945 28.1857C9.49834 27.7567 9.36723 27.1764 9.71686 26.6594C10.0665 26.1407 10.6364 26.0633 11.264 26.452C12.8023 27.4032 14.3337 27.4068 15.8686 26.4396C16.4787 26.0546 17.073 26.1513 17.4122 26.6735C17.7408 27.1799 17.6202 27.7461 17.0625 28.1576C16.0102 28.9331 14.8197 29.2882 13.6449 29.2707H13.6467Z" fill="white"/>
</g>
<defs>
<clipPath id="clip0_1264_2379">
<rect width="54" height="60" fill="white"/>
</clipPath>
</defs>
</svg>
