<svg width="102" height="102" viewBox="0 0 102 102" fill="none" xmlns="http://www.w3.org/2000/svg">
<circle cx="51" cy="51" r="51" fill="#0743A3"/>
<g clip-path="url(#clip0_1832_5942)">
<path d="M50.586 75C42.3612 75 34.1364 75 25.9142 75C23.2377 75 22.4934 73.9838 23.3222 71.4762C24.5918 67.641 25.9327 63.8295 27.1046 59.9652C27.5666 58.4422 27.8701 56.8083 27.8859 55.2193C27.9625 47.1265 27.9203 39.0363 27.9229 30.9435C27.9203 28.0268 28.9602 27 31.906 27C44.3514 27 56.7994 27 69.2449 27C72.2566 27 73.2359 27.9951 73.2385 31.0622C73.2385 39.4613 73.2253 47.8629 73.2596 56.2619C73.2622 57.1646 73.418 58.1017 73.6951 58.9595C75.073 63.2197 76.5194 67.4588 77.9316 71.7085C78.6522 73.8782 77.8418 74.9921 75.5296 74.9947C67.2177 75.0026 58.9058 74.9974 50.5939 74.9974L50.586 75ZM71.1031 56.6895C71.1348 56.3807 71.1744 56.1669 71.1744 55.9557C71.177 47.4723 71.1612 38.9861 71.1955 30.5027C71.2008 29.1539 70.4591 29.0483 69.4164 29.0509C56.8866 29.0668 44.3593 29.0588 31.8294 29.0615C30.0636 29.0615 29.9844 29.1459 29.9817 30.9487C29.9817 39.0812 29.9817 47.2136 29.9817 55.346C29.9817 55.7736 30.0213 56.1986 30.0451 56.6895H71.1031ZM25.0062 72.8514H76.1895C74.6665 68.3167 73.1963 63.906 71.6944 59.5086C71.5993 59.2288 71.2879 58.8276 71.0609 58.817C69.683 58.7536 68.2999 58.7853 66.7505 58.7853C67.4421 61.5463 68.0861 64.0486 68.6906 66.5588C69.1604 68.5067 68.358 69.5546 66.3599 69.5573C55.8466 69.5705 45.3359 69.5705 34.8227 69.5573C32.7559 69.5573 31.9957 68.512 32.4893 66.4637C32.6028 65.9939 32.7348 65.5293 32.8509 65.0595C33.3472 63.0297 33.8407 60.9999 34.337 58.9648C30.2958 58.1703 29.797 58.4448 28.625 61.9712C28.5828 62.0953 28.5274 62.2167 28.4851 62.3408C27.329 65.8329 26.1729 69.325 25.0062 72.8488V72.8514ZM66.769 67.4747C66.1355 64.8932 65.4703 62.4437 64.9609 59.9626C64.7524 58.9463 64.2878 58.7457 63.3561 58.751C55.3583 58.7827 47.3605 58.7668 39.3627 58.7695C37.4481 58.7695 36.2577 59.7241 35.7914 61.6334C35.3242 63.5338 34.8543 65.4317 34.3475 67.4747H66.769Z" fill="white"/>
<path d="M61.0562 40.614C61.0562 43.7154 61.0984 46.6453 61.0086 49.5726C60.9955 49.9658 60.3936 50.5518 59.9502 50.6891C57.0203 51.5971 54.0614 52.4259 51.1025 53.2336C50.7118 53.3418 50.2314 53.2732 49.8302 53.1623C46.998 52.3784 44.1631 51.5997 41.3626 50.7128C40.8584 50.5518 40.1642 49.9078 40.1484 49.467C40.0402 46.5793 40.093 43.6864 40.093 40.6113C42.2336 41.1313 44.2766 41.4639 46.2008 42.1317C49.1941 43.1717 52.0765 43.1294 55.0591 42.1132C56.949 41.4692 58.9445 41.1287 61.0588 40.6113L61.0562 40.614Z" fill="white"/>
<path d="M33.8647 36.7082C34.6565 36.5023 35.4457 36.2938 36.2376 36.0958C40.7512 34.9688 45.2595 33.8338 49.7784 32.7331C50.2667 32.6143 50.829 32.58 51.3094 32.6988C56.2532 33.9077 61.1786 35.1931 66.1304 36.3677C67.4132 36.6713 67.8513 37.3021 67.8038 38.5691C67.7299 40.5435 67.7748 42.5231 67.788 44.5001C67.7933 45.2366 67.6217 45.9096 66.7797 45.8991C65.9377 45.8885 65.7899 45.1943 65.7925 44.4685C65.8031 42.8425 65.8083 41.2165 65.7925 39.5932C65.774 37.9039 65.2171 37.4631 63.57 37.8696C59.6529 38.8357 55.7491 39.8572 51.8188 40.7731C51.0085 40.9632 50.0741 40.95 49.2611 40.7546C44.1219 39.5299 39.0012 38.226 33.8726 36.9484C33.8673 36.8692 33.8647 36.79 33.8594 36.7109L33.8647 36.7082Z" fill="white"/>
</g>
<defs>
<clipPath id="clip0_1832_5942">
<rect width="55.1795" height="48" fill="white" transform="translate(23 27)"/>
</clipPath>
</defs>
</svg>
