<svg width="63" height="24" viewBox="0 0 63 24" fill="none" xmlns="http://www.w3.org/2000/svg">
<rect width="62.4" height="24" rx="2.4" fill="#E93622"/>
<path d="M20.2901 12.0008C20.2901 15.2542 17.6527 17.8917 14.3992 17.8917C11.1458 17.8917 8.50831 15.2542 8.50831 12.0008C8.50831 8.74732 11.1458 6.10987 14.3992 6.10987C17.6527 6.10987 20.2901 8.74732 20.2901 12.0008Z" fill="white" fill-opacity="0.5"/>
<path fill-rule="evenodd" clip-rule="evenodd" d="M21.5992 12.0008C21.5992 15.9772 18.3757 19.2008 14.3992 19.2008C10.4228 19.2008 7.19922 15.9772 7.19922 12.0008C7.19922 8.02433 10.4228 4.80078 14.3992 4.80078C18.3757 4.80078 21.5992 8.02433 21.5992 12.0008ZM14.3992 17.8917C17.6527 17.8917 20.2901 15.2542 20.2901 12.0008C20.2901 8.74732 17.6527 6.10987 14.3992 6.10987C11.1458 6.10987 8.50831 8.74732 8.50831 12.0008C8.50831 15.2542 11.1458 17.8917 14.3992 17.8917Z" fill="white" fill-opacity="0.7"/>
<path d="M18.7629 11.9038C18.7629 14.3807 16.7603 16.3887 14.2901 16.3887C11.8199 16.3887 9.8174 14.3807 9.8174 11.9038C9.8174 9.4269 11.8199 7.41896 14.2901 7.41896C16.7603 7.41896 18.7629 9.4269 18.7629 11.9038Z" fill="white"/>
<path d="M28.2366 16.5009H33.039V17.9992H26.3984V7.19922H28.2366V16.5009Z" fill="white"/>
<path d="M36.3883 17.9992H34.5575V7.19922H36.3883V17.9992Z" fill="white"/>
<path d="M42.375 15.6478L45.0632 7.19922H47.083L43.2759 17.9992H41.4959L37.7034 7.19922H39.7159L42.375 15.6478Z" fill="white"/>
<path d="M54.4646 13.1778H50.1199V16.5009H55.1984V17.9992H48.2818V7.19922H55.1476V8.71241H50.1199V11.6943H54.4646V13.1778Z" fill="white"/>
</svg>
