<svg width="258" height="35" viewBox="0 0 258 35" fill="none" xmlns="http://www.w3.org/2000/svg">
<path d="M50.9077 25.4608C50.9077 27.1465 52.2843 28.5089 53.9779 28.5089H70.6968V23.9561H55.7844V19.4034H66.871V15.23H59.836C57.5996 15.23 55.7844 17.0322 55.7844 19.2525V10.6773H70.6968V6.50391H50.9077V25.4694V25.4608Z" fill="black"/>
<path d="M88.3047 21.2494L82.1861 6.49609H74.5171V28.5097H79.3981V12.4759L85.7426 27.005C86.1638 27.9751 87.1279 28.6002 88.1918 28.6002H88.422C89.4859 28.6002 90.4456 27.9751 90.8712 27.005L97.2157 12.4759V28.5097H102.097V6.49609H94.4277L88.3091 21.2494H88.3047Z" fill="black"/>
<path d="M116.155 22.8431L109.542 6.49023H104.009L112.39 26.2016C113.007 27.6545 114.44 28.5987 116.029 28.5987C117.619 28.5987 119.052 27.6545 119.669 26.2016L128.05 6.49023H122.743L116.16 22.8431H116.155Z" fill="black"/>
<path d="M188.595 15.1058C184.074 14.7178 182.932 14.2263 182.932 12.7345C182.932 11.2428 184.799 10.3633 187.974 10.3633C190.722 10.3633 193.311 11.079 195.504 12.5104L197.336 8.67328C194.718 6.91857 191.574 6.03906 187.774 6.03906C181.455 6.03906 177.721 8.60861 177.721 12.963C177.721 17.3175 180.244 19.1412 187.643 19.7879C192.164 20.1759 193.306 20.6674 193.306 22.1591C193.306 23.7543 191.439 24.5993 187.869 24.5993C184.56 24.5993 181.451 23.6551 178.702 21.8702L176.705 25.8367C179.849 27.919 183.483 28.9236 187.969 28.9236C194.878 28.9236 198.513 26.5178 198.513 21.9349C198.513 17.352 195.99 15.7568 188.59 15.1101L188.595 15.1058Z" fill="black"/>
<path d="M206.716 6.49609H201.744V28.5097H206.716V6.49609Z" fill="black"/>
<path d="M251.899 6.49609L246.11 14.5841L240.317 6.49609H234.22L243.062 18.8437L236.14 28.5097H242.241L258 6.49609H251.899Z" fill="black"/>
<path d="M210.533 10.6695H218.944V28.5097H223.916V14.7609C223.916 12.5018 222.071 10.6695 219.795 10.6695H232.328V6.49609H210.537V10.6695H210.533Z" fill="black"/>
<path d="M166.921 20.0364V20.0235H168.562C169.7 20.0235 170.842 19.7519 171.798 19.1353C173.574 17.9885 174.494 16.0743 174.494 13.453C174.494 8.92182 171.724 6.49023 166.573 6.49023H153.572V28.5038H158.453V20.0149H164.233L169.961 28.5038H175.437L171.363 22.468C170.364 20.9892 168.71 20.0881 166.921 20.0321V20.0364ZM158.448 15.682V10.8317H166.013C168.263 10.8317 169.305 11.6724 169.305 13.453C169.305 15.2336 168.263 15.682 166.013 15.682H158.448Z" fill="black"/>
<path d="M129.955 25.4608C129.955 27.1465 131.331 28.5089 133.025 28.5089H149.744V23.9561H134.831V19.4034H145.918V15.23H138.883C136.646 15.23 134.831 17.0322 134.831 19.2525V10.6773H149.744V6.50391H129.955V25.4694V25.4608Z" fill="black"/>
<path d="M11.1834 7.66016L7.00146 11.812L12.7336 17.5029L7.00146 23.1938L11.1834 27.3457L14.3317 24.2199C18.0663 20.5122 18.0663 14.4936 14.3317 10.7859L11.1834 7.66016Z" fill="#00A66B"/>
<path d="M33.9788 5.06391L29.7926 0.912109L22.8402 7.81453C17.4511 13.1649 17.4511 21.8349 22.8402 27.1853L29.7926 34.0877L33.9745 29.9359L21.4462 17.4978L33.9745 5.0596L33.9788 5.06391Z" fill="#00A66B"/>
<path d="M35.4078 6.49609L31.0869 10.7859C27.348 14.4979 27.348 20.5122 31.0869 24.2242L35.4078 28.514L39.594 24.3579L32.6937 17.5072L39.594 10.6565L35.4078 6.50041V6.49609Z" fill="#00A66B"/>
</svg>
