<svg width="150" height="51" viewBox="0 0 150 51" fill="none" xmlns="http://www.w3.org/2000/svg">
<rect x="0.625" y="1.35937" width="148.75" height="48.75" rx="6.875" fill="black"/>
<rect x="0.625" y="1.35937" width="148.75" height="48.75" rx="6.875" stroke="#A6A6A6" stroke-width="1.25"/>
<path d="M22.2561 25.0615L10.1121 38.2418C10.1132 38.2441 10.1132 38.2476 10.1143 38.2499C10.4873 39.6811 11.7648 40.7344 13.2818 40.7344C13.8886 40.7344 14.4578 40.5664 14.9459 40.2725L14.9847 40.2492L28.6537 32.1835L22.2561 25.0615Z" fill="#EA4335"/>
<path d="M34.5415 22.8171L34.5301 22.8089L28.6286 19.3109L21.98 25.361L28.6525 32.1821L34.5221 28.7191C35.5509 28.1499 36.2501 27.0406 36.2501 25.7623C36.2501 24.4909 35.5612 23.3875 34.5415 22.8171Z" fill="#FBBC04"/>
<path d="M10.1118 13.2262C10.0388 13.5015 10 13.7907 10 14.0893V37.38C10 37.6786 10.0388 37.9678 10.1129 38.2419L22.6733 25.3987L10.1118 13.2262Z" fill="#4285F4"/>
<path d="M22.3457 25.7341L28.6304 19.3084L14.9774 11.2136C14.4812 10.9092 13.9018 10.7342 13.2825 10.7342C11.7654 10.7342 10.4857 11.7898 10.1127 13.2222C10.1127 13.2233 10.1116 13.2245 10.1116 13.2257L22.3457 25.7341Z" fill="#34A853"/>
<path d="M55.7372 15.009C55.7372 16.2173 55.3787 17.1799 54.6617 17.8969C53.8562 18.7508 52.7969 19.1777 51.4838 19.1777C50.2272 19.1777 49.1638 18.7427 48.2938 17.8727C47.4238 17.0027 46.9888 15.9313 46.9888 14.6585C46.9888 13.3858 47.4238 12.3144 48.2938 11.4444C49.1638 10.5744 50.2272 10.1394 51.4838 10.1394C52.1202 10.1394 52.7204 10.2522 53.2842 10.4777C53.8481 10.7033 54.3113 11.0215 54.6738 11.4323L53.8763 12.2298C53.6105 11.9076 53.2641 11.6578 52.8372 11.4806C52.4183 11.2953 51.9672 11.2027 51.4838 11.2027C50.5413 11.2027 49.7438 11.529 49.0913 12.1815C48.4469 12.842 48.1247 13.6677 48.1247 14.6585C48.1247 15.6494 48.4469 16.4751 49.0913 17.1356C49.7438 17.7881 50.5413 18.1144 51.4838 18.1144C52.3458 18.1144 53.0627 17.8727 53.6347 17.3894C54.2066 16.906 54.5369 16.2415 54.6255 15.3956H51.4838V14.3565H55.6767C55.717 14.582 55.7372 14.7995 55.7372 15.009ZM62.1387 10.3327V11.396H58.1995V14.139H61.752V15.1781H58.1995V17.921H62.1387V18.9844H57.0879V10.3327H62.1387ZM66.5853 11.396V18.9844H65.4736V11.396H63.0569V10.3327H69.0019V11.396H66.5853ZM73.9291 18.9844H72.8174V10.3327H73.9291V18.9844ZM78.6214 11.396V18.9844H77.5097V11.396H75.0931V10.3327H81.0381V11.396H78.6214ZM93.088 14.6585C93.088 15.9394 92.661 17.0108 91.8071 17.8727C90.9452 18.7427 89.8899 19.1777 88.6413 19.1777C87.3846 19.1777 86.3294 18.7427 85.4755 17.8727C84.6216 17.0108 84.1946 15.9394 84.1946 14.6585C84.1946 13.3777 84.6216 12.3063 85.4755 11.4444C86.3294 10.5744 87.3846 10.1394 88.6413 10.1394C89.898 10.1394 90.9533 10.5784 91.8071 11.4565C92.661 12.3184 93.088 13.3858 93.088 14.6585ZM85.3305 14.6585C85.3305 15.6574 85.6446 16.4831 86.273 17.1356C86.9094 17.7881 87.6988 18.1144 88.6413 18.1144C89.5838 18.1144 90.3692 17.7881 90.9976 17.1356C91.6339 16.4912 91.9521 15.6655 91.9521 14.6585C91.9521 13.6516 91.6339 12.8259 90.9976 12.1815C90.3692 11.529 89.5838 11.2027 88.6413 11.2027C87.6988 11.2027 86.9094 11.529 86.273 12.1815C85.6446 12.834 85.3305 13.6597 85.3305 14.6585ZM95.5115 18.9844H94.3999V10.3327H95.7532L99.9582 17.0631H100.007L99.9582 15.3956V10.3327H101.07V18.9844H99.9099L95.5115 11.9277H95.4632L95.5115 13.5952V18.9844Z" fill="white"/>
<path d="M116.898 36.9964H118.934V23.2321H116.898V36.9964ZM135.236 28.1901L132.902 34.1579H132.832L130.41 28.1901H128.217L131.849 36.5307L129.779 41.1706H131.901L137.5 28.1901H135.236ZM123.69 35.4329C123.022 35.4329 122.092 35.0971 122.092 34.2636C122.092 33.2022 123.25 32.7948 124.251 32.7948C125.145 32.7948 125.568 32.9897 126.111 33.255C125.953 34.5301 124.865 35.4329 123.69 35.4329ZM123.935 27.8896C122.461 27.8896 120.934 28.5447 120.303 29.997L122.11 30.7578C122.496 29.997 123.215 29.7481 123.97 29.7481C125.023 29.7481 126.094 30.3857 126.111 31.5198V31.6607C125.742 31.4482 124.953 31.13 123.988 31.13C122.04 31.13 120.056 32.2101 120.056 34.2284C120.056 36.0704 121.654 37.2574 123.443 37.2574C124.813 37.2574 125.568 36.6375 126.041 35.9108H126.111V36.9733H128.076V31.6959C128.076 29.2527 126.269 27.8896 123.935 27.8896ZM111.353 29.866H108.457V25.1479H111.353C112.875 25.1479 113.739 26.4196 113.739 27.5064C113.739 28.5733 112.875 29.866 111.353 29.866ZM111.3 23.2321H106.422V36.9964H108.457V31.7818H111.3C113.557 31.7818 115.775 30.1324 115.775 27.5064C115.775 24.8804 113.557 23.2321 111.3 23.2321ZM84.6979 35.4351C83.2914 35.4351 82.1141 34.2471 82.1141 32.6153C82.1141 30.9659 83.2914 29.7592 84.6979 29.7592C86.0869 29.7592 87.1758 30.9659 87.1758 32.6153C87.1758 34.2471 86.0869 35.4351 84.6979 35.4351ZM87.0361 28.9609H86.9652C86.508 28.4115 85.6297 27.9149 84.5222 27.9149C82.2014 27.9149 80.0748 29.9717 80.0748 32.6153C80.0748 35.2402 82.2014 37.2805 84.5222 37.2805C85.6297 37.2805 86.508 36.7839 86.9652 36.2158H87.0361V36.8907C87.0361 38.6822 86.0869 39.6401 84.5571 39.6401C83.3089 39.6401 82.5353 38.735 82.2189 37.972L80.4436 38.7174C80.9532 39.9594 82.3073 41.4844 84.5571 41.4844C86.9477 41.4844 88.9696 40.0651 88.9696 36.6067V28.1979H87.0361V28.9609ZM90.376 36.9964H92.4153V23.231H90.376V36.9964ZM95.4202 32.4557C95.3678 30.6466 96.8092 29.7239 97.8458 29.7239C98.6554 29.7239 99.3406 30.1313 99.5686 30.7171L95.4202 32.4557ZM101.749 30.8944C101.362 29.8483 100.184 27.9149 97.7759 27.9149C95.3853 27.9149 93.3995 29.812 93.3995 32.5977C93.3995 35.2226 95.3679 37.2805 98.004 37.2805C100.132 37.2805 101.362 35.9681 101.872 35.205L100.29 34.1403C99.7628 34.9209 99.0416 35.4351 98.004 35.4351C96.9674 35.4351 96.2287 34.9562 95.7541 34.017L101.959 31.4262L101.749 30.8944ZM52.3126 29.3518V31.3381H57.0229C56.8822 32.4557 56.5134 33.2715 55.9515 33.8386C55.2652 34.5312 54.1926 35.2942 52.3126 35.2942C49.4114 35.2942 47.144 32.9346 47.144 30.008C47.144 27.0803 49.4114 24.7218 52.3126 24.7218C53.8773 24.7218 55.0197 25.3428 55.8631 26.1411L57.2521 24.7394C56.0737 23.6042 54.5101 22.7344 52.3126 22.7344C48.3399 22.7344 45 25.999 45 30.008C45 34.017 48.3399 37.2805 52.3126 37.2805C54.4567 37.2805 56.0737 36.5703 57.3394 35.2402C58.6411 33.9278 59.0448 32.0835 59.0448 30.5927C59.0448 30.1313 59.0099 29.7063 58.9389 29.3518H52.3126ZM64.401 35.4351C62.9946 35.4351 61.7813 34.2647 61.7813 32.5977C61.7813 30.912 62.9946 29.7592 64.401 29.7592C65.8064 29.7592 67.0197 30.912 67.0197 32.5977C67.0197 34.2647 65.8064 35.4351 64.401 35.4351ZM64.401 27.9149C61.8337 27.9149 59.742 29.8836 59.742 32.5977C59.742 35.2942 61.8337 37.2805 64.401 37.2805C66.9673 37.2805 69.059 35.2942 69.059 32.5977C69.059 29.8836 66.9673 27.9149 64.401 27.9149ZM74.5626 35.4351C73.1561 35.4351 71.9428 34.2647 71.9428 32.5977C71.9428 30.912 73.1561 29.7592 74.5626 29.7592C75.969 29.7592 77.1812 30.912 77.1812 32.5977C77.1812 34.2647 75.969 35.4351 74.5626 35.4351ZM74.5626 27.9149C71.9963 27.9149 69.9046 29.8836 69.9046 32.5977C69.9046 35.2942 71.9963 37.2805 74.5626 37.2805C77.1288 37.2805 79.2205 35.2942 79.2205 32.5977C79.2205 29.8836 77.1288 27.9149 74.5626 27.9149Z" fill="white"/>
</svg>
