<svg width="102" height="102" viewBox="0 0 102 102" fill="none" xmlns="http://www.w3.org/2000/svg">
<circle cx="51" cy="51" r="51" fill="#9821F3"/>
<g clip-path="url(#clip0_2406_3487)">
<path d="M58.0974 81.0006C54.5644 81.0006 51.0297 81.0006 47.4967 81.0006C46.3552 81.0006 46.1279 80.8142 45.8989 79.7152C45.6402 78.472 45.3815 77.2288 45.1262 75.9838C44.8815 74.7934 44.3466 74.3503 43.1333 74.3485C41.345 74.345 39.5567 74.3644 37.7683 74.3433C33.8647 74.2975 30.8771 71.7039 30.2251 67.8319C29.872 65.7359 29.4926 63.6452 29.15 61.5492C29.0748 61.0902 28.879 60.8265 28.4455 60.6471C27.6011 60.2954 26.7778 59.8928 25.9526 59.4936C24.0507 58.5705 23.4336 56.4744 24.5681 54.6826C25.8897 52.5937 27.2602 50.5346 28.5801 48.4421C28.7759 48.1326 28.8983 47.7176 28.8965 47.3519C28.8825 44.5191 28.9315 41.7004 29.6482 38.9292C32.0449 29.6519 39.6388 22.6675 49.0823 21.3347C56.0189 20.3552 62.6059 21.4314 68.3048 25.8186C75.5001 31.3575 78.687 38.7516 77.8759 47.839C77.5489 51.5017 76.3043 54.8725 74.4006 58.0042C73.1157 60.1178 71.8762 62.2596 70.5476 64.3433C68.7139 67.22 68.2296 70.2831 69.004 73.5959C69.4586 75.5355 69.8292 77.4943 70.2312 79.4461C70.4428 80.4766 70.025 80.9935 68.9586 80.9953C65.3382 81.0023 61.7161 80.9988 58.0957 80.9988L58.0974 81.0006ZM67.9692 78.894C67.6457 77.3361 67.3923 75.8713 67.0356 74.4329C66.013 70.313 66.6091 66.5008 68.9464 62.9366C70.2522 60.9443 71.4217 58.8606 72.6646 56.8244C74.4845 53.8404 75.6417 50.6084 75.8568 47.1215C76.3987 38.319 73.0125 31.3927 65.6651 26.5588C60.5116 23.1669 54.7585 22.5761 48.813 23.5221C40.5478 24.8374 33.5763 31.4525 31.6323 39.6097C30.9838 42.3317 31.01 45.0836 30.9873 47.846C30.9838 48.2961 30.8352 48.8043 30.5974 49.1859C29.2496 51.3364 27.8529 53.4553 26.4753 55.5882C25.8303 56.587 26.0173 57.2112 27.1047 57.7211C28.1116 58.1924 29.1133 58.676 30.1289 59.1279C30.6534 59.3617 30.9418 59.7099 31.0397 60.2972C31.44 62.6956 31.8823 65.0853 32.2966 67.482C32.8036 70.415 34.9241 72.2297 37.8907 72.242C39.7227 72.249 41.5548 72.2297 43.3868 72.2473C45.2871 72.2666 46.7083 73.4482 47.1104 75.3104C47.3184 76.274 47.5719 77.2306 47.703 78.2047C47.7869 78.8254 48.0736 78.9081 48.6085 78.9063C54.8022 78.8905 60.9958 78.8958 67.1895 78.8958H67.9692V78.894Z" fill="white"/>
<path d="M65.3557 38.8561C65.3085 41.8084 64.1827 44.6482 61.9224 47.0238C61.5151 47.4529 61.0518 47.6146 60.5186 47.2858C60.0693 47.008 59.9295 46.5631 60.0938 46.0866C60.1882 45.8123 60.4207 45.5766 60.6235 45.3516C64.9467 40.516 63.8226 33.0322 58.2758 29.7458C53.7096 27.0396 47.4356 28.5202 44.913 32.8986C43.1037 36.0373 43.9305 40.1291 46.822 42.343C49.7448 44.5796 53.9019 44.2895 56.4315 41.6695C58.1097 39.9322 58.1446 37.1803 56.5084 35.4131C54.8896 33.6653 52.1835 33.4824 50.348 34.9981C49.4477 35.7419 49.2624 36.8022 49.8969 37.597C50.5263 38.3883 51.514 38.4534 52.4562 37.7658C53.0488 37.3333 53.6379 37.3632 54.0225 37.8467C54.4089 38.3303 54.311 38.9194 53.7656 39.4099C52.2971 40.7287 49.855 40.6197 48.4809 39.1743C47.0772 37.6973 47.0789 35.3533 48.4862 33.8728C50.9318 31.3002 55.0417 31.193 57.6936 33.6319C60.2949 36.0268 60.5693 40.2083 58.1953 42.823C55.5871 45.6945 52.2989 46.637 48.6173 45.5538C44.906 44.4618 42.6317 41.8559 42.0058 37.9962C41.2839 33.5545 43.5896 29.5788 47.9408 27.4704C56.0049 23.5633 65.3942 29.5225 65.361 38.8561H65.3557Z" fill="white"/>
<path d="M37.6467 50.2707C36.2639 50.2707 35.1154 49.9225 34.0945 49.1857C33.4983 48.7567 33.3672 48.1764 33.7169 47.6594C34.0665 47.1407 34.6364 47.0633 35.264 47.452C36.8023 48.4032 38.3337 48.4068 39.8686 47.4396C40.4787 47.0546 41.073 47.1513 41.4122 47.6735C41.7408 48.1799 41.6202 48.7461 41.0625 49.1576C40.0102 49.9331 38.8197 50.2882 37.6449 50.2707H37.6467Z" fill="white"/>
</g>
<defs>
<clipPath id="clip0_2406_3487">
<rect width="54" height="60" fill="white" transform="translate(24 21)"/>
</clipPath>
</defs>
</svg>
