<svg width="56" height="56" viewBox="0 0 56 56" fill="none" xmlns="http://www.w3.org/2000/svg">
<circle cx="28" cy="28" r="28" fill="#E7EDF6"/>
<path d="M39.2833 32.59V25.108L29.1526 30.608C28.7897 30.8131 28.4067 30.9157 28.0036 30.9157C27.6003 30.9157 27.2157 30.8131 26.8499 30.608L16.6603 25.0517C16.4416 24.9268 16.2844 24.7749 16.1886 24.596C16.0928 24.4173 16.0449 24.2187 16.0449 24C16.0449 23.7813 16.0928 23.5828 16.1886 23.4043C16.2844 23.2257 16.4416 23.0739 16.6603 22.949L26.8496 17.3993C27.0305 17.2989 27.2164 17.2235 27.4073 17.1733C27.5981 17.1229 27.7961 17.0977 28.0013 17.0977C28.2064 17.0977 28.4044 17.1233 28.5953 17.1747C28.7859 17.226 28.9717 17.303 29.1526 17.4057L40.6473 23.6593C40.8493 23.7607 41.0057 23.9075 41.1166 24.1C41.2277 24.2927 41.2833 24.5004 41.2833 24.7233V32.59C41.2833 32.8733 41.1874 33.1109 40.9956 33.3027C40.8038 33.4942 40.5663 33.59 40.2829 33.59C39.9994 33.59 39.7619 33.4942 39.5706 33.3027C39.379 33.1109 39.2833 32.8733 39.2833 32.59ZM26.8499 37.826L20.5936 34.4437C20.2005 34.225 19.8924 33.9249 19.6693 33.5433C19.4461 33.1615 19.3346 32.7498 19.3346 32.308V27.703L26.8499 31.7747C27.2128 31.9798 27.5958 32.0823 27.9989 32.0823C28.4023 32.0823 28.7868 31.9798 29.1526 31.7747L36.6679 27.703V32.3103C36.6679 32.755 36.5564 33.167 36.3333 33.5463C36.1101 33.9259 35.802 34.225 35.4089 34.4437L29.1526 37.826C28.9708 37.9284 28.7839 38.0053 28.5919 38.0567C28.4001 38.108 28.2033 38.1337 28.0013 38.1337C27.7993 38.1337 27.6024 38.108 27.4106 38.0567C27.2186 38.0053 27.0317 37.9284 26.8499 37.826Z" fill="#0743A3"/>
</svg>
