<svg width="56" height="56" viewBox="0 0 56 56" fill="none" xmlns="http://www.w3.org/2000/svg">
<circle cx="28" cy="28" r="28" fill="#DFFDFE"/>
<g clip-path="url(#clip0_1824_4827)">
<path d="M26.9567 44C26.385 43.8984 25.8075 43.8217 25.2417 43.6917C21.3875 42.8084 18.2142 39.4667 17.5267 35.5817C16.7008 30.92 18.8925 26.5109 23.1017 24.3634C28.9592 21.375 36.3 24.8025 37.7758 31.215C39.1333 37.1159 35.3942 42.7875 29.4408 43.8559C29.115 43.9142 28.785 43.9525 28.4567 44H26.9567ZM36.1875 33.6292C36.1767 28.9584 32.385 25.1734 27.7125 25.1675C23.0342 25.1617 19.215 28.9784 19.2258 33.6484C19.2367 38.3234 23.0692 42.14 27.7317 42.1192C32.3967 42.0984 36.1983 38.2809 36.1867 33.6284L36.1875 33.6292Z" fill="#1CB2B7"/>
<path d="M35.8328 12C36.1128 12.3008 36.387 12.6075 36.6753 12.9C36.8128 13.04 36.9778 13.1525 37.1328 13.2808C36.2853 14.1258 35.497 14.9117 34.7045 15.7017C35.3478 16.3258 35.972 16.9308 36.5595 17.5008C35.3436 18.7175 34.1936 19.8683 33.0661 20.9958C32.6895 20.6167 32.2603 20.1842 31.8145 19.7358C32.4803 19.0725 33.1911 18.3633 33.9211 17.635C33.2786 16.995 32.662 16.3808 32.0311 15.7525C32.1295 15.6483 32.2036 15.5658 32.2828 15.4867C33.357 14.4117 34.4328 13.3375 35.5061 12.2608C35.5828 12.1833 35.6411 12.0875 35.7078 12C35.7495 12 35.7911 12 35.8328 12Z" fill="#1CB2B7"/>
<path d="M19.7054 12C19.7729 12.0875 19.8312 12.1833 19.9087 12.2608C21.0554 13.41 22.2045 14.5558 23.3687 15.7192C22.7312 16.3433 22.1054 16.9575 21.4745 17.575C22.2412 18.3358 22.9487 19.0383 23.6312 19.7158C23.172 20.175 22.7412 20.605 22.342 21.0042C21.2287 19.8917 20.0779 18.7417 18.9129 17.5775C19.4879 17.01 20.107 16.3992 20.7254 15.79C19.892 14.9583 19.0995 14.1667 18.2695 13.3375C18.7512 12.87 19.197 12.435 19.6429 12C19.6637 12 19.6845 12 19.7054 12Z" fill="#1CB2B7"/>
<path d="M12.291 21.3403C12.8726 20.7628 13.491 20.1486 14.1126 19.532C13.386 18.8078 12.6801 18.1053 12.001 17.4286C12.466 16.9628 12.896 16.5328 13.2951 16.1328C14.4035 17.242 15.5551 18.3928 16.711 19.5486C16.1443 20.112 15.5285 20.7253 14.8976 21.3528C15.9651 22.4045 16.9926 23.4161 17.9935 24.4028C17.511 24.8828 17.0785 25.3128 16.6693 25.7203C15.2493 24.3003 13.7818 22.8311 12.291 21.3395V21.3403Z" fill="#1CB2B7"/>
<path d="M43.1612 21.3346C41.6403 22.8555 40.177 24.3188 38.7228 25.773C38.3137 25.363 37.887 24.9371 37.4512 24.5005C38.4645 23.4896 39.4903 22.4663 40.5387 21.4213C39.8703 20.7555 39.2537 20.1421 38.6545 19.5455C39.8212 18.378 40.967 17.2305 42.0903 16.1055C42.4945 16.5171 42.9212 16.9505 43.3545 17.3905C42.7003 18.0405 41.9895 18.748 41.2637 19.4696C41.9328 20.128 42.5537 20.7371 43.1612 21.3346Z" fill="#1CB2B7"/>
<path d="M30.0166 39.1199C28.4599 38.2033 26.9449 38.2049 25.3982 39.1208C25.0624 38.6174 24.7241 38.1108 24.3857 37.6041C26.0182 36.2949 29.0782 36.1274 31.0357 37.5908C30.6991 38.0966 30.3607 38.6033 30.0166 39.1199Z" fill="#1CB2B7"/>
<path d="M22.9845 31.7745C23.1028 32.3479 23.4161 32.6637 23.8753 32.6895C24.3953 32.7187 24.7045 32.4454 24.9136 31.7695H26.7428C26.8411 33.2187 25.5136 34.5554 23.9786 34.572C22.4036 34.5895 21.0686 33.2837 21.1436 31.7745H22.9861H22.9845Z" fill="#1CB2B7"/>
<path d="M28.664 31.7637H30.489C30.739 32.4653 31.0182 32.7128 31.5274 32.6895C31.9915 32.6687 32.2782 32.3837 32.444 31.7695H34.2657C34.3765 33.1962 33.0832 34.532 31.5724 34.5703C29.9707 34.6112 28.6182 33.3212 28.6632 31.7637H28.664Z" fill="#1CB2B7"/>
</g>
<defs>
<clipPath id="clip0_1824_4827">
<rect width="31.355" height="32" fill="white" transform="translate(12 12)"/>
</clipPath>
</defs>
</svg>
