<svg width="56" height="56" viewBox="0 0 56 56" fill="none" xmlns="http://www.w3.org/2000/svg">
<circle cx="28" cy="28" r="28" fill="#F5E8FF"/>
<path d="M16.0357 35.0128C15.8288 34.8062 15.7309 34.5686 15.7421 34.3002C15.7532 34.0317 15.8511 33.8053 16.0357 33.6208L22.7614 26.8078C23.2212 26.3394 23.7904 26.1052 24.4691 26.1052C25.1475 26.1052 25.721 26.3394 26.1894 26.8078L29.5201 30.1592C29.5972 30.236 29.6913 30.2745 29.8024 30.2745C29.9135 30.2745 30.0117 30.236 30.0971 30.1592L37.2871 23.0488H34.3331C34.0493 23.0488 33.8117 22.9532 33.6204 22.7618C33.4288 22.5703 33.3331 22.3326 33.3331 22.0488C33.3331 21.7651 33.4288 21.5275 33.6204 21.3362C33.8117 21.1446 34.0493 21.0488 34.3331 21.0488H39.4611C39.8048 21.0488 40.0916 21.1638 40.3214 21.3938C40.5514 21.6238 40.6664 21.9106 40.6664 22.2542V27.3822C40.6664 27.6659 40.5706 27.9036 40.3791 28.0952C40.1877 28.2865 39.9502 28.3822 39.6664 28.3822C39.3826 28.3822 39.1451 28.2886 38.9537 28.1015C38.7622 27.9144 38.6664 27.6789 38.6664 27.3952V24.4538L31.5101 31.6105C31.0501 32.0703 30.4808 32.3002 29.8024 32.3002C29.1237 32.3002 28.5545 32.0703 28.0947 31.6105L24.7637 28.2795C24.6868 28.2026 24.5886 28.1642 24.4691 28.1642C24.3493 28.1642 24.251 28.2026 24.1741 28.2795L17.4407 35.0128C17.2476 35.2062 17.0134 35.3028 16.7381 35.3028C16.4629 35.3028 16.2288 35.2062 16.0357 35.0128Z" fill="#9821F3"/>
</svg>
