<svg width="56" height="56" viewBox="0 0 56 56" fill="none" xmlns="http://www.w3.org/2000/svg">
<circle cx="28" cy="28" r="28" fill="#FEF0E9"/>
<g clip-path="url(#clip0_1824_4828)">
<path d="M19.4578 40.686C19.5894 40.9233 19.7209 41.1442 19.8361 41.3738C20.1396 41.9756 19.9677 42.6557 19.3977 43.0099C18.9153 43.3091 18.4201 43.5894 17.9163 43.8508C17.3067 44.1672 16.6146 43.9703 16.2724 43.3693C14.8976 40.9542 13.5305 38.5348 12.1721 36.1102C11.8204 35.4826 12.0268 34.7767 12.6441 34.407C13.0946 34.1379 13.552 33.8791 14.0137 33.6289C14.6603 33.279 15.3584 33.4767 15.7393 34.1061C15.839 34.2712 15.931 34.4405 16.0428 34.6357C16.3377 34.4655 16.6223 34.3021 16.906 34.1379C17.9077 33.5584 18.9016 32.9643 19.9161 32.4063C20.3254 32.181 20.769 32.0039 21.2144 31.8604C21.8747 31.6471 22.5401 31.6901 23.2039 31.9076C24.6578 32.384 26.1159 32.8474 27.5741 33.3091C27.7873 33.377 28.0169 33.3933 28.2301 33.4613C29.2507 33.7854 29.8095 34.836 29.5198 35.8678C29.4974 35.946 29.4759 36.0242 29.4287 36.1945C29.7158 36.0492 29.9351 35.9512 30.1414 35.8308C31.726 34.91 33.308 33.984 34.8908 33.0615C35.5993 32.6488 36.3335 32.31 37.1641 32.2249C38.1795 32.12 39.0573 32.6393 39.3565 33.5335C39.678 34.4956 39.3212 35.4817 38.4537 36.0182C35.5537 37.81 32.6502 39.5949 29.7554 41.3953C28.6901 42.0573 27.5793 42.2207 26.3704 41.8845C24.5245 41.3703 22.6631 40.9104 20.824 40.373C20.2781 40.2139 19.8757 40.3231 19.4604 40.6851L19.4578 40.686ZM18.9299 39.7574C19.1896 39.6095 19.4303 39.49 19.6504 39.3404C19.9101 39.165 20.1654 39.1375 20.4698 39.2209C22.4628 39.7669 24.466 40.2741 26.4521 40.845C27.5045 41.1477 28.433 41.0152 29.3616 40.4323C32.1937 38.6534 35.0482 36.9098 37.894 35.1516C38.3798 34.8515 38.5526 34.3786 38.3712 33.8533C38.2181 33.4114 37.8063 33.1921 37.2509 33.2515C36.5734 33.3246 35.9802 33.6186 35.4032 33.9548C33.7817 34.8979 32.1619 35.8437 30.5429 36.7912C29.7958 37.2279 28.9953 37.4351 28.1381 37.2881C27.3798 37.1583 26.6266 36.9889 25.8778 36.8101C25.2536 36.6613 24.6363 36.4791 24.0198 36.3002C23.7026 36.2082 23.5469 35.9434 23.6174 35.6649C23.6914 35.3734 23.9708 35.2272 24.3044 35.3081C24.3981 35.3304 24.4892 35.3639 24.5821 35.388C25.5451 35.6408 26.5037 35.9125 27.4727 36.1377C28.0229 36.2658 28.4571 35.9727 28.5525 35.486C28.6497 34.9942 28.3419 34.5489 27.808 34.4165C27.5999 34.3649 27.385 34.3408 27.1812 34.2755C25.7849 33.8301 24.3861 33.389 22.9975 32.9205C22.3785 32.7115 21.7784 32.7012 21.1791 32.948C20.8636 33.0778 20.5506 33.2231 20.254 33.3925C19.0907 34.0571 17.9343 34.7329 16.7753 35.4061C16.7048 35.4473 16.6412 35.5006 16.5604 35.5574C17.3505 36.9571 18.1303 38.3379 18.9308 39.7557L18.9299 39.7574ZM17.2981 42.9876C17.3944 42.9506 17.4365 42.9403 17.4726 42.9205C17.9206 42.6686 18.3702 42.4175 18.8147 42.1596C19.0022 42.0513 18.9592 41.9051 18.8698 41.7469C17.544 39.4023 16.2199 37.0577 14.9002 34.7105C14.7798 34.4964 14.6457 34.4483 14.4316 34.5747C14.0438 34.8034 13.6526 35.026 13.2571 35.2401C13.0422 35.3562 12.9949 35.4955 13.1221 35.7096C13.3354 36.0698 13.5366 36.4361 13.742 36.8006C14.8443 38.7532 15.9448 40.7066 17.0496 42.6583C17.1184 42.7795 17.2181 42.8835 17.2981 42.9884V42.9876Z" fill="#F36421"/>
<path d="M42.9548 23.5781C43.1395 23.5299 43.2999 23.4739 43.4663 23.4475C44.1294 23.3432 44.6105 23.9179 44.3526 24.5377C43.9073 25.608 43.4402 26.6696 42.9628 27.726C42.7424 28.2134 42.207 28.3511 41.7747 28.0319C40.8426 27.3427 39.9176 26.6428 39.0067 25.9258C38.4893 25.5186 38.6165 24.7996 39.2251 24.554C39.3329 24.5108 39.4454 24.4788 39.6229 24.4202C39.5033 23.9609 39.4066 23.501 39.2642 23.0565C37.7088 18.1904 33.0215 15.0534 27.9501 15.4798C27.6624 15.5041 27.3779 15.5613 27.0904 15.5971C26.6959 15.6448 26.4949 15.5212 26.3937 15.146C26.1974 14.4197 26.0061 13.6921 25.8248 12.962C25.7227 12.5496 25.8908 12.3015 26.318 12.2258C29.2951 11.6964 32.17 12.0368 34.913 13.324C38.0063 14.7758 40.3063 17.05 41.8008 20.1338C42.2768 21.115 42.6174 22.1431 42.8568 23.2055C42.8828 23.3187 42.9154 23.4302 42.9544 23.5799L42.9548 23.5781ZM27.3024 14.4872C27.3792 14.4886 27.4529 14.4987 27.5256 14.4913C31.3359 14.0976 34.6192 15.2521 37.3424 17.9402C39.2048 19.7793 40.2781 22.0408 40.6762 24.6265C40.7163 24.8861 40.6947 25.1272 40.4371 25.2707C40.3301 25.3306 40.2075 25.3616 40.0403 25.4256C40.7637 25.9755 41.4472 26.4949 42.1519 27.031C42.5089 26.205 42.8496 25.4188 43.2169 24.5706C43.0638 24.6105 43.0014 24.6267 42.9398 24.6428C42.2542 24.8143 42.1064 24.7142 41.9776 24.0289C41.7525 22.8304 41.4312 21.6551 40.8673 20.5715C38.3628 15.7625 34.4024 13.2296 28.9866 13.0295C28.3201 13.005 27.6493 13.0935 26.9492 13.1311L27.3024 14.4872Z" fill="#F36421"/>
<path d="M26.2245 24.4896C24.192 22.8715 24.3528 20.3111 25.6984 18.8925C27.1359 17.3767 29.5011 17.3243 31.0066 18.7773C32.4338 20.1538 32.6995 22.7967 30.6034 24.4939C30.771 24.5636 30.9249 24.622 31.0754 24.69C33.463 25.7724 34.8447 27.6158 35.2204 30.214C35.2754 30.5958 35.0751 30.8322 34.689 30.8537C34.5824 30.8597 34.4749 30.8563 34.3675 30.8563C30.379 30.8563 26.3913 30.8563 22.4028 30.8563C21.6634 30.8563 21.4966 30.6714 21.6333 29.9415C22.1217 27.3372 23.5885 25.5368 26.0577 24.5696C26.1068 24.5507 26.1532 24.524 26.2245 24.4896ZM34.0898 29.8091C33.7011 27.5375 31.4812 25.0425 28.1805 25.1947C25.4525 25.3202 22.7596 27.6442 22.751 29.8091H34.0898ZM28.4213 24.1423C29.9164 24.1346 31.1158 22.9188 31.0995 21.4271C31.0831 19.9242 29.8794 18.7412 28.38 18.7549C26.8977 18.7678 25.7181 19.9646 25.7199 21.4521C25.7216 22.9498 26.9261 24.15 28.4204 24.1414L28.4213 24.1423Z" fill="#F36421"/>
<path d="M16.713 29.1005C16.3602 29.1923 16.0094 29.2882 15.6553 29.3751C15.1982 29.4861 14.95 29.3278 14.8692 28.8744C14.5543 27.0924 14.5493 25.3133 14.9055 23.5359C15.0023 23.0549 15.2303 22.9103 15.7093 23.0405C16.4014 23.228 17.0927 23.4193 17.783 23.6136C18.2192 23.7363 18.342 23.9246 18.2647 24.3712C18.0486 25.6189 18.0411 26.8656 18.245 28.1159C18.3072 28.4977 18.1729 28.7086 17.8 28.8155C17.4396 28.9192 17.0749 29.0062 16.7122 29.1007L16.713 29.1005ZM15.8187 28.2664C16.2248 28.1606 16.5835 28.0574 16.947 27.976C17.1401 27.9328 17.1646 27.8394 17.1455 27.6569C17.1034 27.2529 17.0708 26.8447 17.0762 26.4391C17.0841 25.8009 17.1268 25.1634 17.1562 24.5089C16.7311 24.3913 16.2993 24.2719 15.8416 24.145C15.6173 25.5113 15.6051 26.8596 15.8187 28.2664Z" fill="#F36421"/>
<path d="M25.4002 14.2604C25.4923 14.614 25.5902 14.9661 25.6746 15.3208C25.7668 15.7055 25.6673 15.9269 25.2971 16.0579C24.0725 16.4898 22.9651 17.1229 21.9612 17.9451C21.6741 18.1798 21.4374 18.1579 21.1653 17.8876C20.6337 17.3579 20.1063 16.8237 19.5838 16.2845C19.2971 15.9887 19.3136 15.6939 19.6256 15.4251C21.0224 14.2217 22.5981 13.3333 24.3394 12.7393C24.7287 12.6068 24.9911 12.7446 25.1053 13.1386C25.2135 13.5094 25.3029 13.8868 25.4002 14.2604ZM21.5439 16.8037C22.5425 16.2779 23.4962 15.7781 24.4465 15.272C24.4971 15.2446 24.5571 15.1508 24.5464 15.1029C24.4532 14.7007 24.344 14.3018 24.2334 13.8775C22.9062 14.3796 21.7351 15.0409 20.6622 15.9121C20.9938 16.2469 21.3013 16.5577 21.5439 16.8037Z" fill="#F36421"/>
<path d="M15.3743 21.9624C15.4075 21.7761 15.4129 21.6467 15.4534 21.5295C16.0653 19.7887 16.9799 18.2248 18.196 16.8392C18.4645 16.533 18.7602 16.5253 19.0531 16.8177C19.5838 17.3476 20.1104 17.8821 20.6329 18.4212C20.8929 18.6893 20.911 18.9396 20.6744 19.2216C19.8381 20.2168 19.2009 21.3246 18.7481 22.5433C18.6142 22.9025 18.4075 23.0025 18.0372 22.9044C17.2924 22.7057 16.5474 22.5062 15.8108 22.2805C15.6476 22.2306 15.5182 22.0715 15.3737 21.9634L15.3743 21.9624ZM17.8477 21.7846C18.4327 20.7766 18.9954 19.8055 19.573 18.8101C19.3017 18.5361 18.9893 18.2203 18.6603 17.8884C17.7723 18.9815 17.0922 20.136 16.5924 21.4337C17.0457 21.5608 17.4664 21.6786 17.8479 21.7854L17.8477 21.7846Z" fill="#F36421"/>
<path d="M14.9095 35.9342C14.9035 36.1972 14.674 36.4191 14.41 36.4182C14.1297 36.4165 13.9062 36.1775 13.9217 35.8946C13.9363 35.6289 14.1727 35.4123 14.4332 35.4243C14.6955 35.4372 14.9156 35.6728 14.9095 35.9333V35.9342Z" fill="#F36421"/>
</g>
<defs>
<clipPath id="clip0_1824_4828">
<rect width="33" height="32" fill="white" transform="translate(12 12)"/>
</clipPath>
</defs>
</svg>
