<svg width="18" height="18" viewBox="0 0 18 18" fill="none" xmlns="http://www.w3.org/2000/svg">
<path d="M3.41129 14.625C3.03254 14.625 2.71191 14.4938 2.44941 14.2313C2.18691 13.9688 2.05566 13.6481 2.05566 13.2692V4.73081C2.05566 4.35194 2.18691 4.03125 2.44941 3.76875C2.71191 3.50625 3.03254 3.375 3.41129 3.375H11.9499C12.3286 3.375 12.6492 3.50625 12.9117 3.76875C13.1742 4.03125 13.3055 4.35194 13.3055 4.73081V8.16356L15.3652 6.10387C15.4758 5.99325 15.6 5.96562 15.7379 6.021C15.8759 6.07625 15.9449 6.18175 15.9449 6.3375V11.6625C15.9449 11.8183 15.8759 11.9237 15.7379 11.979C15.6 12.0344 15.4758 12.0068 15.3652 11.8961L13.3055 9.83644V13.2692C13.3055 13.6481 13.1742 13.9688 12.9117 14.2313C12.6492 14.4938 12.3286 14.625 11.9499 14.625H3.41129ZM3.41129 13.5H11.9499C12.0171 13.5 12.0724 13.4784 12.1156 13.4351C12.159 13.3919 12.1807 13.3366 12.1807 13.2692V4.73081C12.1807 4.66344 12.159 4.60813 12.1156 4.56488C12.0724 4.52163 12.0171 4.5 11.9499 4.5H3.41129C3.34404 4.5 3.28879 4.52163 3.24554 4.56488C3.20229 4.60813 3.18066 4.66344 3.18066 4.73081V13.2692C3.18066 13.3366 3.20229 13.3919 3.24554 13.4351C3.28879 13.4784 3.34404 13.5 3.41129 13.5Z" fill="#0743A3"/>
<path d="M10.4203 11.7404H4.93945V11.4723C4.93945 10.9991 5.19402 10.6131 5.70314 10.3141C6.21227 10.015 6.8712 9.86539 7.67995 9.86539C8.48858 9.86539 9.14745 10.015 9.65658 10.3141C10.1657 10.6131 10.4203 10.9991 10.4203 11.4723V11.7404Z" fill="#F36421"/>
<path d="M8.60939 8.5017C8.35414 8.75708 8.04433 8.88477 7.67995 8.88477C7.31545 8.88477 7.00558 8.75708 6.75033 8.5017C6.49508 8.24645 6.36745 7.93664 6.36745 7.57227C6.36745 7.20777 6.49508 6.89789 6.75033 6.64264C7.00558 6.38739 7.31545 6.25977 7.67995 6.25977C8.04433 6.25977 8.35414 6.38739 8.60939 6.64264C8.86477 6.89789 8.99245 7.20777 8.99245 7.57227C8.99245 7.93664 8.86477 8.24645 8.60939 8.5017Z" fill="#F36421"/>
</svg>
