<svg width="290" height="239" viewBox="0 0 290 239" fill="none" xmlns="http://www.w3.org/2000/svg">
<g opacity="0.1">
<path d="M14.6977 0.137741C18.8981 0.137741 22.4493 1.59644 25.3705 4.51381C28.2841 7.4312 29.7428 10.9863 29.7428 15.1829V223.386C29.7428 227.354 28.2841 230.794 25.3705 233.708C22.4493 236.629 18.8981 238.084 14.6977 238.084C10.7263 238.084 7.28964 236.629 4.37608 233.708C1.45487 230.794 0 227.354 0 223.386V15.1829C0 10.9863 1.45487 7.4312 4.37608 4.51381C7.28964 1.59644 10.7263 0.137741 14.6977 0.137741Z" fill="#0743A3"/>
<path d="M173.881 -0.000244141C139.769 -0.000244141 109.064 14.8387 87.8561 38.3916V15.0449C87.8561 10.8483 86.3974 7.29321 83.4838 4.37584C80.5626 1.45845 77.0075 -0.000244141 72.8109 -0.000244141C68.8396 -0.000244141 65.4029 1.45845 62.4894 4.37584C59.5682 7.29321 58.1133 10.8483 58.1133 15.0449V115.763V223.248V223.443C58.1133 231.661 64.7729 238.316 72.9866 238.316C81.2003 238.316 87.8599 231.661 87.8599 223.443V115.763C87.8599 68.3368 126.45 29.7464 173.881 29.7464C221.311 29.7464 259.902 68.3368 259.902 115.763V223.443C259.902 231.661 266.561 238.316 274.775 238.316C282.989 238.316 289.648 231.661 289.648 223.443V115.763C289.648 51.9322 237.716 -0.000244141 173.881 -0.000244141Z" fill="#0743A3"/>
<path d="M206.827 223.619C206.827 227.586 205.369 231.027 202.451 233.94C199.534 236.862 195.979 238.316 191.782 238.316C187.811 238.316 184.374 236.862 181.457 233.94C178.539 231.027 177.084 227.586 177.084 223.619V164.133C177.084 158.772 176.264 153.754 174.633 149.084C173.934 147.687 173.35 146.289 172.884 144.888C168.218 135.322 161.104 128.326 151.538 123.893C150.141 123.19 148.743 122.614 147.342 122.14C142.672 120.281 137.658 119.341 132.293 119.341C127.161 119.341 122.261 120.281 117.599 122.14C116.197 122.614 114.678 123.19 113.047 123.893C103.718 128.326 96.719 135.322 92.0527 144.888C91.3539 146.289 90.7697 147.687 90.3038 149.084C88.6694 153.754 87.8561 158.772 87.8561 164.133V223.619C87.8561 227.586 86.4165 231.046 83.5029 233.959C80.5817 236.881 77.0075 238.316 72.8071 238.316C68.8396 238.316 65.3991 236.862 62.4855 233.94C59.5682 231.027 58.1133 227.586 58.1133 223.619V104.648C58.1133 100.447 59.5682 96.892 62.4855 93.9746C65.3991 91.0611 68.8396 89.5986 72.8071 89.5986C77.0075 89.5986 80.5626 91.0611 83.48 93.9746C86.3936 96.892 87.8561 100.447 87.8561 104.648C94.8555 99.2824 102.779 95.3188 111.65 92.7489C113.513 92.0501 115.499 91.5842 117.599 91.3475C122.498 90.1866 127.397 89.5986 132.293 89.5986C137.425 89.5986 142.442 90.1866 147.342 91.3475C149.205 91.5842 151.191 92.0501 153.291 92.7489C161.917 95.3188 169.852 99.2824 177.084 104.648C182.683 108.844 187.582 113.743 191.782 119.341C197.143 126.578 201.107 134.509 203.677 143.139C204.376 145.239 204.956 147.221 205.426 149.084C206.358 153.983 206.827 159.005 206.827 164.133V223.619Z" fill="#FF601E"/>
</g>
</svg>
