<?xml version="1.0" encoding="UTF-8"?>
<svg version="1.1" xmlns="http://www.w3.org/2000/svg" width="146" height="151">
<path d="M0 0 C0.7321875 -0.01289063 1.464375 -0.02578125 2.21875 -0.0390625 C5.81223147 1.00698519 7.2603486 2.65293248 9.5 5.625 C10.21741328 8.56632279 10.28972915 11.41909751 10.3125 14.4375 C10.33763672 15.22576172 10.36277344 16.01402344 10.38867188 16.82617188 C10.44722981 18.75858373 10.47655488 20.69184327 10.5 22.625 C10.903396 22.1697998 11.30679199 21.71459961 11.72241211 21.24560547 C22.32847981 9.51371455 39.3024134 1.67759901 55.07128906 0.41992188 C76.69624508 -0.35721259 96.09140364 3.68202584 112.5 18.625 C113.63501953 19.64013672 113.63501953 19.64013672 114.79296875 20.67578125 C125.35352015 30.63489422 135.27202219 45.93945123 135.76069641 60.90130615 C135.77547328 62.50933825 135.7795105 64.11749326 135.7746582 65.72558594 C135.77976913 66.60936417 135.78488007 67.4931424 135.79014587 68.40370178 C135.80397261 71.30566294 135.80309131 74.20738497 135.80078125 77.109375 C135.80467001 79.13242684 135.80900505 81.15547786 135.81376648 83.17852783 C135.82121231 87.40827082 135.82094783 91.6379303 135.81567383 95.86767578 C135.80986015 101.294086 135.82686383 106.720157 135.8500185 112.14651108 C135.86472453 116.31915288 135.86563219 120.49171218 135.86250877 124.66437531 C135.86302287 126.66590297 135.86827703 128.66743515 135.87832069 130.66893768 C135.89061652 133.46018353 135.88393652 136.25075762 135.87231445 139.04199219 C135.87995819 139.87112625 135.88760193 140.70026031 135.89547729 141.55451965 C135.84356758 147.17668065 135.84356758 147.17668065 134.21489239 149.30192947 C131.31887792 151.53625707 128.04703535 151.8659307 124.5 151.625 C119.06790123 148.76080247 119.06790123 148.76080247 117.5 145.625 C117.3992278 143.27951966 117.36436516 140.93113203 117.3581543 138.58349609 C117.35467987 137.85787979 117.35120544 137.13226349 117.34762573 136.38465881 C117.34026186 134.80394637 117.33491985 133.22322354 117.33133507 131.64249802 C117.32415441 129.12588994 117.30846892 126.60947516 117.28999329 124.09292603 C117.23764967 116.9353527 117.18971444 109.77787709 117.17407227 102.62011719 C117.16387573 98.24091425 117.13424685 93.86218675 117.09275246 89.48317337 C117.08058537 87.82736468 117.07529451 86.1714883 117.07755089 84.51563644 C117.09624544 66.29107929 114.20653084 49.6875984 101.3125 35.8125 C90.83615889 26.07691028 77.76824295 20.86963894 63.5 20.125 C48.17594923 20.92474002 34.06187284 26.86163048 23.53125 38.1171875 C17.07194118 46.09194954 13.2989558 54.81996228 10.5 64.625 C11.26183594 64.21507812 12.02367188 63.80515625 12.80859375 63.3828125 C25.63521704 56.68926876 37.68125114 54.24966857 51.84765625 58.66015625 C64.76200433 63.35801189 74.45999859 71.1248416 80.5 83.625 C83.7994227 91.67603711 85.10871792 98.89071606 85.06640625 107.55859375 C85.07260483 108.63955826 85.07880341 109.72052277 85.08518982 110.83424377 C85.09223417 113.09546008 85.0892094 115.35672884 85.07641602 117.61791992 C85.06243367 121.07891887 85.09684266 124.53727051 85.13476562 127.99804688 C85.1357159 130.20572983 85.13386295 132.41341616 85.12890625 134.62109375 C85.14216446 135.65133163 85.15542267 136.68156952 85.16908264 137.74302673 C85.10727314 142.48696189 85.07263816 144.85604937 82.17553711 148.74633789 C78.7670378 151.13965865 76.66617931 151.69809087 72.5 151.625 C67.03164557 148.68829114 67.03164557 148.68829114 65.5 145.625 C65.39770426 144.25867449 65.35419825 142.8876759 65.34228516 141.51757812 C65.33202301 140.66909302 65.32176086 139.82060791 65.31118774 138.94641113 C65.30388641 138.02565796 65.29658508 137.10490479 65.2890625 136.15625 C65.26096836 134.20311699 65.23230376 132.24999211 65.203125 130.296875 C65.16205729 127.2207077 65.12516983 124.14468814 65.09863281 121.06835938 C65.07078547 118.09733595 65.02488798 115.12700198 64.9765625 112.15625 C64.97330963 111.25169067 64.97005676 110.34713135 64.96670532 109.41516113 C64.80349141 100.80738824 63.16360225 92.36009457 57.5 85.625 C50.32973125 79.23777987 44.13702208 77.12228669 34.53125 77.3125 C27.0160312 78.08726482 20.46886665 81.9850137 15.5 87.625 C10.68105979 95.08044245 10.36880967 102.12170541 10.359375 110.78125 C10.34105647 112.79298016 10.32148705 114.80469925 10.30078125 116.81640625 C10.27176165 119.9765917 10.2499983 123.13605909 10.24951172 126.29638672 C10.24617994 129.35448372 10.21166112 132.41093813 10.171875 135.46875 C10.1789447 136.41157837 10.1860144 137.35440674 10.19329834 138.32580566 C10.10882305 142.87710622 9.99408388 144.9735474 7.17285156 148.69335938 C3.7709429 151.1518816 1.69628039 151.69861895 -2.5 151.625 C-7.96835443 148.68829114 -7.96835443 148.68829114 -9.5 145.625 C-9.6041458 143.78663126 -9.64388109 141.9444843 -9.65390015 140.10319519 C-9.66250061 138.92969009 -9.67110107 137.756185 -9.67996216 136.54711914 C-9.68422211 135.25306152 -9.68848206 133.95900391 -9.69287109 132.62573242 C-9.70077148 131.25425508 -9.70904039 129.88277982 -9.71765137 128.51130676 C-9.74387808 124.00104764 -9.75917926 119.4907792 -9.7734375 114.98046875 C-9.77879684 113.42846483 -9.78417435 111.87646097 -9.78956985 110.32445717 C-9.8111992 103.86917901 -9.82993642 97.41390337 -9.84119225 90.95859814 C-9.85743496 81.70381714 -9.89061944 72.44945577 -9.94759309 63.19483298 C-9.98627792 56.6894604 -10.00582316 50.18420012 -10.01111281 43.67871553 C-10.01476823 39.79226938 -10.02680878 35.90627071 -10.05921555 32.01994896 C-10.08927128 28.36314333 -10.09561757 24.7070565 -10.08383179 21.05015373 C-10.08350555 19.0698563 -10.10798781 17.08960339 -10.13320923 15.10946655 C-10.06509164 5.43070802 -10.06509164 5.43070802 -7.10610962 2.32978821 C-4.44890385 0.59157542 -3.13979656 -0.05527811 0 0 Z " fill="#0C4A9F" transform="translate(10.5,-0.625)"/>
<path d="M0 0 C9.78486669 8.29300361 16.08667278 19.12900862 17.74490356 31.98629761 C17.90113763 34.98476698 17.94434368 37.95850427 17.9296875 40.9609375 C17.93588608 42.04190201 17.94208466 43.12286652 17.94847107 44.23658752 C17.95551542 46.49780383 17.95249065 48.75907259 17.93969727 51.02026367 C17.92571492 54.48126262 17.96012391 57.93961426 17.99804688 61.40039062 C17.99899715 63.60807358 17.9971442 65.81575991 17.9921875 68.0234375 C18.00544571 69.05367538 18.01870392 70.08391327 18.03236389 71.14537048 C17.97055439 75.88930564 17.93591941 78.25839312 15.03881836 82.14868164 C11.63031905 84.5420024 9.52946056 85.10043462 5.36328125 85.02734375 C-0.10507318 82.09063489 -0.10507318 82.09063489 -1.63671875 79.02734375 C-1.73901449 77.66101824 -1.7825205 76.29001965 -1.79443359 74.91992188 C-1.80469574 74.07143677 -1.81495789 73.22295166 -1.82553101 72.34875488 C-1.83283234 71.42800171 -1.84013367 70.50724854 -1.84765625 69.55859375 C-1.87575039 67.60546074 -1.90441499 65.65233586 -1.93359375 63.69921875 C-1.97466146 60.62305145 -2.01154892 57.54703189 -2.03808594 54.47070312 C-2.06593328 51.4996797 -2.11183077 48.52934573 -2.16015625 45.55859375 C-2.16340912 44.65403442 -2.16666199 43.7494751 -2.17001343 42.81750488 C-2.33322734 34.20973199 -3.9731165 25.76243832 -9.63671875 19.02734375 C-16.8069875 12.64012362 -22.99969667 10.52463044 -32.60546875 10.71484375 C-40.12068755 11.48960857 -46.6678521 15.38735745 -51.63671875 21.02734375 C-56.45565896 28.4827862 -56.76790908 35.52404916 -56.77734375 44.18359375 C-56.79566228 46.19532391 -56.8152317 48.207043 -56.8359375 50.21875 C-56.8649571 53.37893545 -56.88672045 56.53840284 -56.88720703 59.69873047 C-56.89053881 62.75682747 -56.92505763 65.81328188 -56.96484375 68.87109375 C-56.95777405 69.81392212 -56.95070435 70.75675049 -56.94342041 71.72814941 C-57.0278957 76.27944997 -57.14263487 78.37589115 -59.96386719 82.09570312 C-63.36577585 84.55422535 -65.44043836 85.1009627 -69.63671875 85.02734375 C-75.10507318 82.09063489 -75.10507318 82.09063489 -76.63671875 79.02734375 C-76.75570128 76.46588077 -76.81503735 73.93074402 -76.82958984 71.36816406 C-76.83776733 70.57771698 -76.84594482 69.7872699 -76.85437012 68.97286987 C-76.87923282 66.35041056 -76.89574338 63.72800546 -76.91015625 61.10546875 C-76.91547993 60.21012169 -76.9208036 59.31477463 -76.9262886 58.39229584 C-76.95302552 53.65216426 -76.97239764 48.91205906 -76.98681641 44.171875 C-77.00345494 39.2779151 -77.04822424 34.38462984 -77.09918785 29.49092484 C-77.13286296 25.7264937 -77.14439417 21.96222253 -77.15004349 18.19765472 C-77.15675652 16.39393719 -77.17198002 14.5902302 -77.1959343 12.78665924 C-77.22759202 10.25858322 -77.22762215 7.73232416 -77.22021484 5.20410156 C-77.23662018 4.46205475 -77.25302551 3.72000793 -77.26992798 2.95547485 C-77.20137538 -2.77464225 -75.5813678 -5.11637395 -71.63671875 -8.97265625 C-68.86084529 -9.95052076 -66.48205258 -9.65807067 -63.63671875 -8.97265625 C-60.35690124 -6.90494521 -58.78925868 -5.20146614 -56.63671875 -1.97265625 C-55.87488281 -2.38257813 -55.11304687 -2.7925 -54.328125 -3.21484375 C-36.21320427 -12.66807329 -16.86372691 -12.61656606 0 0 Z " fill="#F16421" transform="translate(77.63671875,65.97265625)"/>
</svg>
