<svg width="18" height="18" viewBox="0 0 18 18" fill="none" xmlns="http://www.w3.org/2000/svg">
<path d="M6.64612 14.625H4.73081C4.35681 14.625 4.03731 14.4926 3.77231 14.2277C3.50744 13.9627 3.375 13.6432 3.375 13.2692V11.3539L1.98169 9.94894C1.85381 9.81344 1.75719 9.6635 1.69181 9.49912C1.62644 9.33462 1.59375 9.16825 1.59375 9C1.59375 8.83175 1.62644 8.66538 1.69181 8.50087C1.75719 8.3365 1.85381 8.18656 1.98169 8.05106L3.375 6.64613V4.73081C3.375 4.35681 3.50744 4.03731 3.77231 3.77231C4.03731 3.50744 4.35681 3.375 4.73081 3.375H6.64612L8.05106 1.98169C8.18656 1.85381 8.3365 1.75719 8.50087 1.69181C8.66538 1.62644 8.83175 1.59375 9 1.59375C9.16825 1.59375 9.33462 1.62644 9.49912 1.69181C9.6635 1.75719 9.81344 1.85381 9.94894 1.98169L11.3539 3.375H13.2692C13.6432 3.375 13.9627 3.50744 14.2277 3.77231C14.4926 4.03731 14.625 4.35681 14.625 4.73081V6.64613L16.0183 8.05106C16.1462 8.18656 16.2428 8.3365 16.3082 8.50087C16.3736 8.66538 16.4062 8.83175 16.4062 9C16.4062 9.16825 16.3736 9.33462 16.3082 9.49912C16.2428 9.6635 16.1462 9.81344 16.0183 9.94894L14.625 11.3539V13.2692C14.625 13.6432 14.4926 13.9627 14.2277 14.2277C13.9627 14.4926 13.6432 14.625 13.2692 14.625H11.3539L9.94894 16.0183C9.81344 16.1462 9.6635 16.2428 9.49912 16.3082C9.33462 16.3736 9.16825 16.4062 9 16.4062C8.83175 16.4062 8.66538 16.3736 8.50087 16.3082C8.3365 16.2428 8.18656 16.1462 8.05106 16.0183L6.64612 14.625ZM7.125 13.5L8.83406 15.2091C8.87731 15.2523 8.93262 15.2739 9 15.2739C9.06738 15.2739 9.12269 15.2523 9.16594 15.2091L10.875 13.5H13.2692C13.3366 13.5 13.3919 13.4784 13.4351 13.4351C13.4784 13.3919 13.5 13.3366 13.5 13.2692V10.875L15.2091 9.16594C15.2523 9.12269 15.2739 9.06738 15.2739 9C15.2739 8.93262 15.2523 8.87731 15.2091 8.83406L13.5 7.125V4.73081C13.5 4.66344 13.4784 4.60813 13.4351 4.56488C13.3919 4.52163 13.3366 4.5 13.2692 4.5H10.875L9.16594 2.79094C9.12269 2.74769 9.06738 2.72606 9 2.72606C8.93262 2.72606 8.87731 2.74769 8.83406 2.79094L7.125 4.5H4.73081C4.66344 4.5 4.60812 4.52163 4.56487 4.56488C4.52163 4.60813 4.5 4.66344 4.5 4.73081V7.125L2.79094 8.83406C2.74769 8.87731 2.72606 8.93262 2.72606 9C2.72606 9.06738 2.74769 9.12269 2.79094 9.16594L4.5 10.875V13.2692C4.5 13.3366 4.52163 13.3919 4.56487 13.4351C4.60812 13.4784 4.66344 13.5 4.73081 13.5H7.125Z" fill="#0743A3"/>
<path d="M10.3314 11.5085L9.00015 10.6965L7.6689 11.5085C7.54578 11.5864 7.42153 11.582 7.29615 11.4954C7.17065 11.4089 7.12422 11.2916 7.15684 11.1435L7.51028 9.62041L6.32172 8.59347C6.20634 8.49059 6.17247 8.36947 6.22009 8.23009C6.26772 8.09072 6.3694 8.01478 6.52515 8.00228L8.07859 7.87103L8.69153 6.44172C8.74915 6.30609 8.85203 6.23828 9.00015 6.23828C9.14828 6.23828 9.25115 6.30609 9.30878 6.44172L9.92172 7.87103L11.4752 8.00228C11.6309 8.01478 11.7326 8.09072 11.7802 8.23009C11.8278 8.36947 11.794 8.49059 11.6786 8.59347L10.49 9.62041L10.8435 11.1435C10.8761 11.2916 10.8297 11.4089 10.7042 11.4954C10.5788 11.582 10.4545 11.5864 10.3314 11.5085Z" fill="#F36421"/>
</svg>
