<svg width="106" height="75" viewBox="0 0 106 75" fill="none" xmlns="http://www.w3.org/2000/svg">
<path d="M80.7506 0L68.364 9.49368C75.7483 16.1392 80.7506 24.2089 82.8944 31.8038C71.4607 31.8038 61.9326 41.5348 61.9326 53.1646C61.9326 65.0316 71.4607 75 83.3708 75C96.7101 75 106 62.6582 106 45.3323C106 31.3291 97.9011 16.3766 80.7506 0ZM18.818 0L6.43146 9.49368C13.8157 16.1392 18.818 24.2089 20.9618 31.8038C9.52809 31.8038 0 41.5348 0 53.1646C0 65.0316 9.52808 75 21.4382 75C34.7775 75 44.0674 62.6582 44.0674 45.3323C44.0674 31.3291 35.9685 16.3766 18.818 0Z" fill="#E7EDF6"/>
</svg>
