<svg width="53" height="48" viewBox="0 0 53 48" fill="none" xmlns="http://www.w3.org/2000/svg">
<g clip-path="url(#clip0_1118_3082)">
<path d="M17.8132 11.4403C17.7981 11.1907 17.7797 11.0337 17.7797 10.8777C17.7776 8.54646 17.7711 6.21526 17.7797 3.88406C17.7873 1.90248 19.1488 0.548079 21.1442 0.547003C30.3255 0.541624 39.5057 0.541624 48.687 0.547003C50.7276 0.548079 52.0579 1.88419 52.06 3.91956C52.0643 9.3533 52.0643 14.787 52.06 20.2208C52.0589 22.2088 50.706 23.5772 48.7161 23.5783C39.5175 23.5847 30.319 23.5847 21.1194 23.5783C19.1326 23.5761 17.7841 22.1991 17.7765 20.2132C17.7744 19.6807 17.7765 19.1482 17.7765 18.5921C18.5484 18.5404 19.2598 18.492 20.0414 18.4393C20.0414 19.0041 20.0371 19.5732 20.0414 20.1422C20.0489 20.9867 20.3745 21.3202 21.2186 21.3202C30.3632 21.3224 39.5078 21.3234 48.6535 21.3202C49.462 21.3202 49.7962 20.9813 49.7962 20.1713C49.7984 14.7731 49.7984 9.37589 49.7962 3.97765C49.7962 3.11703 49.4879 2.80721 48.632 2.80721C39.5046 2.80613 30.3783 2.80613 21.2509 2.80721C20.3605 2.80721 20.0435 3.12026 20.0414 3.99809C20.0381 6.20343 20.0306 8.40984 20.0489 10.6152C20.0522 11.01 19.9573 11.2069 19.5369 11.2381C18.9731 11.28 18.4115 11.3682 17.8121 11.4414L17.8132 11.4403Z" fill="white"/>
<path d="M12.3767 13.7485C12.3767 16.4713 12.3767 19.1941 12.3767 21.9169C12.3767 23.4994 12.2592 23.6166 10.6605 23.6177C8.98964 23.6177 7.31875 23.622 5.64786 23.6166C4.78654 23.6134 4.49225 23.3111 4.49225 22.443C4.49009 19.9859 4.49225 17.5299 4.49225 15.0728C4.49225 14.8985 4.49225 14.7232 4.49225 14.3994C4.02224 14.9932 3.8088 15.5483 3.75382 16.1443C3.61584 17.6601 3.50049 19.1791 3.40886 20.6991C3.36143 21.4952 3.10163 22.1374 2.34272 22.4838C1.42104 22.9034 -0.021321 22.1288 0.000238942 21.1068C0.0519827 18.695 0.0142529 16.2497 0.856167 13.9379C1.43397 12.3511 2.31685 10.9225 3.74412 9.94675C4.26263 9.59282 4.90404 9.40994 5.50233 9.18295C5.81387 9.06462 6.01222 9.18618 6.13619 9.53688C6.50486 10.5836 6.91666 11.6153 7.31444 12.6513C7.34354 12.7276 7.3996 12.7943 7.48153 12.9299C7.64538 12.193 7.80708 11.5367 7.92782 10.8719C7.95153 10.7418 7.82433 10.5815 7.76073 10.4384C7.70467 10.3125 7.57963 10.1867 7.58825 10.0694C7.61197 9.7628 7.62059 9.24858 7.76612 9.19909C8.14557 9.07 8.61127 9.07215 9.01228 9.16036C9.34538 9.23352 9.33137 10.1479 9.036 10.4459C8.94976 10.5331 8.83118 10.6708 8.84843 10.7622C8.9821 11.455 9.14595 12.1424 9.41222 12.8417C9.79167 11.8476 10.1711 10.8536 10.5506 9.85962C10.861 9.04633 10.8966 8.95919 11.6954 9.28838C12.5438 9.63801 13.3674 10.106 14.1058 10.6503C14.8065 11.1678 15.4113 11.8272 16.0063 12.4716C16.5097 13.017 17.1016 13.2774 17.8206 13.2279C18.6075 13.1741 19.3945 13.102 20.1738 12.9826C21.1645 12.8298 22.0064 13.3473 22.1994 14.2854C22.3978 15.2492 21.876 16.0797 20.8842 16.2917C19.4893 16.5886 18.0804 16.7069 16.6574 16.4907C15.6549 16.3379 14.7569 15.97 14.0357 15.2363C13.5237 14.7157 13.017 14.1885 12.5071 13.6646C12.4629 13.6926 12.4187 13.7195 12.3745 13.7475L12.3767 13.7485Z" fill="white"/>
<path d="M29.8261 40.7307C29.8962 42.6649 29.9662 44.5991 30.0363 46.5323C30.0794 47.7307 29.8239 47.9943 28.6198 47.9943C27.0211 47.9943 25.4225 47.9975 23.8238 47.9921C22.928 47.99 22.583 47.6393 22.6078 46.7432C22.6639 44.7368 22.7318 42.7305 22.6855 40.679C22.5205 41.1093 22.3071 41.5278 22.2004 41.9721C21.9147 43.1555 21.6721 44.3485 21.4177 45.5394C21.1644 46.7238 20.1522 47.2595 19.1669 46.713C18.5945 46.3957 18.3045 45.8944 18.3896 45.2403C18.7712 42.2959 19.5614 39.4881 21.2377 36.988C21.8425 36.0865 22.665 35.5153 23.7785 35.5013C25.5195 35.4798 27.2615 35.482 29.0036 35.5045C30.032 35.5175 30.8373 36.022 31.3978 36.8514C33.1097 39.387 34.0464 42.198 34.2502 45.2457C34.3116 46.1644 33.7651 46.8325 32.9544 46.9411C32.1039 47.0541 31.4474 46.5506 31.2372 45.6071C30.9795 44.4539 30.7489 43.2942 30.4729 42.1453C30.3543 41.6515 30.1538 41.176 29.991 40.693C29.936 40.7059 29.8811 40.7188 29.825 40.7317L29.8261 40.7307Z" fill="white"/>
<path d="M11.8977 40.7307C11.958 42.6994 12.0173 44.667 12.0799 46.6357C12.1133 47.7028 11.8427 47.9911 10.7852 47.9922C9.18651 47.9944 7.58785 47.9933 5.98918 47.9922C4.94029 47.9922 4.63629 47.6469 4.64492 46.5829C4.66109 44.6304 4.64923 42.6779 4.64923 40.7619C4.51448 41.1255 4.30104 41.5623 4.18893 42.0249C3.90433 43.2082 3.66718 44.4023 3.4063 45.5922C3.27047 46.2118 2.94492 46.6765 2.30567 46.8648C1.72786 47.0348 1.24276 46.8347 0.823423 46.456C0.432111 46.1031 0.327545 45.6395 0.398693 45.1296C0.801863 42.2454 1.57371 39.4882 3.21011 37.0301C3.82349 36.1081 4.646 35.5154 5.78113 35.5003C7.50484 35.4766 9.22856 35.4766 10.9523 35.4992C12.1122 35.5143 12.9401 36.1275 13.5556 37.0699C15.1877 39.5721 16.0102 42.3465 16.3067 45.2931C16.3875 46.0945 15.8442 46.7949 15.0702 46.9336C14.2844 47.0756 13.5492 46.6314 13.3508 45.8213C13.0403 44.5519 12.7913 43.2674 12.4884 41.9969C12.3828 41.5526 12.1941 41.1288 12.0432 40.6952C11.9947 40.7071 11.9451 40.72 11.8966 40.7318L11.8977 40.7307Z" fill="white"/>
<path d="M48.0095 40.6467C48.0095 41.9817 48.0009 43.2447 48.0128 44.5076C48.0203 45.3145 48.0667 46.1202 48.0796 46.926C48.0904 47.6091 47.7648 47.9781 47.0825 47.9856C45.2865 48.0039 43.4906 48.0039 41.6946 47.9878C40.9832 47.9813 40.6188 47.5488 40.6425 46.7818C40.6986 44.9906 40.7708 43.1995 40.8333 41.4083C40.8409 41.1803 40.8344 40.9511 40.8344 40.723C40.7816 40.7091 40.7287 40.694 40.6759 40.68C40.4463 41.4503 40.1876 42.213 39.9946 42.9929C39.7801 43.8611 39.6313 44.7454 39.4416 45.62C39.2487 46.5118 38.5145 47.0604 37.7459 46.9012C36.7876 46.7033 36.3068 45.9696 36.4567 45.0003C36.8706 42.326 37.5885 39.7624 38.9802 37.4064C39.6486 36.2758 40.5131 35.5088 41.8757 35.4905C43.5272 35.4679 45.1798 35.4722 46.8313 35.4862C48.0979 35.4969 48.9743 36.1521 49.6341 37.1967C50.9848 39.3374 51.7793 41.673 52.162 44.1612C52.2083 44.4614 52.2816 44.7583 52.3345 45.0573C52.4951 45.9588 52.0003 46.7173 51.1239 46.9217C50.3013 47.1132 49.537 46.629 49.3204 45.7222C49.0239 44.4861 48.7857 43.2371 48.4892 42.0021C48.3814 41.5503 48.1799 41.12 48.0095 40.6477V40.6467Z" fill="white"/>
<path d="M8.39108 26.2734C10.587 26.2713 12.3721 28.0442 12.3753 30.228C12.3775 32.4118 10.602 34.1976 8.41264 34.2116C6.24695 34.2256 4.42944 32.4204 4.4219 30.2484C4.41435 28.0732 6.21029 26.2745 8.39108 26.2734Z" fill="white"/>
<path d="M26.4119 26.2735C28.5991 26.2799 30.3811 28.0689 30.3746 30.2527C30.3681 32.428 28.5582 34.2234 26.3839 34.2116C24.2042 34.1998 22.4082 32.3935 22.419 30.2237C22.4298 28.042 24.2236 26.267 26.413 26.2735H26.4119Z" fill="white"/>
<path d="M44.3969 26.2734C46.583 26.2745 48.3714 28.0581 48.3747 30.2409C48.3768 32.4097 46.5669 34.2159 44.3936 34.2127C42.2139 34.2084 40.4169 32.4118 40.418 30.2377C40.419 28.0592 42.2128 26.2724 44.3969 26.2734Z" fill="white"/>
<path d="M8.41707 3.13717e-05C10.6173 0.00863757 12.3819 1.77829 12.3755 3.97072C12.369 6.15454 10.572 7.93064 8.38473 7.91451C6.18669 7.89837 4.41124 6.11796 4.42094 3.93844C4.42956 1.75462 6.21904 -0.00857483 8.41707 3.13717e-05Z" fill="white"/>
<path d="M33.5259 7.99936C30.723 7.99936 27.9211 8.00132 25.1183 7.99838C24.4636 7.99838 24.0631 7.6734 24.0064 7.11936C23.9478 6.55455 24.2964 6.08959 24.8415 6.02009C25.0125 5.99855 25.1872 6.00051 25.3601 6.00051C30.7608 6.00051 36.1606 6.00051 41.5613 6.00051C41.7502 6.00051 41.9401 5.99561 42.1271 6.01617C42.6297 6.07197 43.0009 6.49875 43 7.00091C42.9981 7.49818 42.6174 7.9328 42.1224 7.98761C41.9665 8.00523 41.8078 7.9974 41.6501 7.9974C38.9417 7.9974 36.2342 7.9974 33.5259 7.9974V7.99936Z" fill="white"/>
<path d="M30.4846 12.9998C28.5779 12.9998 26.6711 13.0008 24.7644 12.9979C24.3029 12.9979 24.0256 12.6523 24.0016 12.0682C23.9758 11.4498 24.2563 11.012 24.7062 11.0061C25.5464 10.9953 26.3867 11.0022 27.227 11.0022C30.1783 11.0022 33.1302 11.0022 36.0815 11.0022C36.6826 11.0022 37.0038 11.3516 37 12.0044C36.9961 12.6572 36.6774 12.9998 36.075 12.9998C34.2116 12.9998 32.3481 12.9998 30.484 12.9998H30.4846Z" fill="white"/>
<path d="M32.9786 16.0005C35.5293 16.0005 38.08 16.0005 40.6307 16.0005C40.7945 16.0005 40.9591 15.9966 41.1229 16.0103C41.6268 16.0534 41.9982 16.4735 42 16.9944C42.0018 17.5115 41.6259 17.958 41.1292 17.9854C40.6826 18.0099 40.2342 17.9962 39.7867 17.9962C34.969 17.9962 30.1514 17.9962 25.3337 17.9962C25.1547 17.9962 24.9739 18.004 24.7976 17.9825C24.3206 17.9227 23.9912 17.4997 24.0002 16.9768C24.0082 16.4725 24.3295 16.0769 24.7913 16.0181C24.9533 15.9976 25.1189 16.0015 25.2827 16.0015C27.8486 16.0015 30.4136 16.0015 32.9795 16.0005H32.9786Z" fill="white"/>
</g>
<defs>
<clipPath id="clip0_1118_3082">
<rect width="52.3636" height="48" fill="white"/>
</clipPath>
</defs>
</svg>
