<svg width="100" height="100" viewBox="0 0 100 100" fill="none" xmlns="http://www.w3.org/2000/svg">
<circle cx="50" cy="50" r="50" fill="#74AE42"/>
<g clip-path="url(#clip0_1824_4550)">
<path d="M26.8605 60.6196C24.2464 60.1514 23.0637 59.0968 23.0046 57.2029C22.9712 56.145 23.3457 55.2465 24.1093 54.5174C24.874 53.7873 25.8249 53.5443 26.8716 53.5643V51.1387C24.2342 50.4676 23.1774 49.4398 23.1752 47.5603C23.1729 45.6608 24.2832 44.5762 26.8739 43.9731C26.8817 43.7969 26.8962 43.6119 26.8962 43.428C26.8995 42.826 26.8962 42.224 26.8962 41.5474C25.5562 41.5864 24.4471 41.1661 23.6612 40.0871C23.1807 39.426 22.9656 38.6769 23.0046 37.8576C23.0949 35.9781 24.3222 34.8979 26.8572 34.4989V32.1133C24.1327 31.5626 22.9856 30.4858 23.0001 28.5183C23.0146 26.5753 24.1684 25.5129 26.8962 24.9767C26.8962 23.7851 26.8939 22.5811 26.8962 21.3761C26.9006 20.3182 27.2206 20.0005 28.2829 20.0005C40.1516 20.0005 52.0203 19.9994 63.889 20.0005C66.2857 20.0005 67.8407 21.5522 67.8485 23.9422C67.8552 25.9833 67.8519 28.0255 67.8552 30.0666C67.8552 30.1068 67.8731 30.1469 67.9243 30.3654C68.0915 29.487 68.2331 28.7746 68.3624 28.059C68.7013 26.184 70.1248 25.1874 71.9887 25.5341C73.0109 25.7236 74.032 25.9198 75.052 26.1204C76.7431 26.4538 77.7151 27.8773 77.3974 29.575C75.0665 42.0278 72.7322 54.4795 70.398 66.9324C70.0535 68.7728 69.7235 70.6155 69.3534 72.4515C69.2788 72.8238 69.1149 73.2117 68.8886 73.5149C67.4338 75.4679 65.9468 77.3987 64.4775 79.3417C64.1743 79.7419 63.8533 80.0908 63.2937 79.9782C62.7408 79.8678 62.5646 79.4331 62.4286 78.946C62.0775 77.6841 61.7041 76.4289 61.3239 75.1179H60.5191C49.8164 75.1179 39.1138 75.1179 28.4111 75.1179C27.186 75.1179 26.8995 74.8337 26.8984 73.6141C26.8984 72.4515 26.8984 71.2877 26.8984 70.0648C25.6031 70.0815 24.5162 69.7081 23.7303 68.687C23.2309 68.0371 22.9879 67.2991 23.0035 66.4786C23.0392 64.5691 24.1873 63.5257 26.8616 62.9973V60.6184L26.8605 60.6196ZM39.1929 22.0015V73.0835H60.5982C60.5213 72.2619 60.2627 71.4348 60.3998 70.6801C61.9125 62.3719 63.491 54.0771 65.0416 45.7756C65.3348 44.2038 65.7863 42.6253 65.813 41.0446C65.9078 35.4018 65.8509 29.7567 65.8498 24.1128C65.8498 22.6135 65.2322 22.0015 63.7206 22.0015C55.768 22.0015 47.8155 22.0015 39.8629 22.0015H39.1929ZM69.4928 60.9707C71.1872 51.9223 72.8693 42.9442 74.5593 33.9203C72.8214 33.5959 71.1783 33.2882 69.4827 32.9705C67.7883 42.0167 66.1073 50.996 64.4162 60.0198C66.1396 60.3431 67.7694 60.6474 69.4928 60.9707ZM64.045 61.9829C63.5077 64.8444 62.9827 67.648 62.4487 70.4906C64.1766 70.8161 65.8197 71.126 67.5241 71.4471C68.0637 68.571 68.5887 65.7708 69.1205 62.9405C67.3848 62.6127 65.7394 62.3028 64.045 61.9829ZM28.9573 30.0287C28.9573 30.0287 28.9573 30.031 28.9573 30.0321C29.7265 30.0321 30.4957 30.0321 31.2637 30.0321C31.305 30.0321 31.3473 30.0321 31.3886 30.0299C32.2737 29.9886 32.8823 29.4223 32.908 28.6175C32.9347 27.7703 32.3595 27.1025 31.4532 27.0802C29.7923 27.0401 28.128 27.0401 26.467 27.0802C25.564 27.1025 24.9688 27.7848 25.0033 28.6119C25.0379 29.4234 25.6421 30.002 26.525 30.0254C27.3354 30.0466 28.1458 30.0299 28.9562 30.0299L28.9573 30.0287ZM28.9473 39.5286V39.5308C29.7377 39.5308 30.5269 39.5308 31.3172 39.5308C31.3585 39.5308 31.4008 39.5286 31.4421 39.5264C32.2938 39.4751 32.8757 38.9199 32.908 38.1285C32.9414 37.3002 32.393 36.6169 31.5279 36.5912C29.8257 36.5433 28.1202 36.5433 26.4168 36.5868C25.5518 36.6091 24.9755 37.2958 25.0044 38.1006C25.0334 38.9121 25.6376 39.4996 26.516 39.5241C27.3265 39.5464 28.1369 39.5286 28.9473 39.5286ZM28.9963 49.0429C28.9963 49.0429 28.9963 49.0362 28.9963 49.0329C29.7254 49.0329 30.4544 49.0329 31.1824 49.0329C31.2236 49.0329 31.266 49.0329 31.3072 49.0318C32.2793 49.0006 32.9035 48.4321 32.9102 47.5726C32.9169 46.712 32.3071 46.0889 31.3407 46.0688C29.78 46.0376 28.2171 46.0398 26.6554 46.0654C25.7168 46.0811 25.097 46.7376 25.1204 47.6005C25.1427 48.4399 25.7614 49.0195 26.6844 49.0385C27.4547 49.0541 28.2249 49.0418 28.9952 49.0418L28.9963 49.0429ZM28.9484 58.5439C29.7176 58.5439 30.4868 58.5439 31.2559 58.5439C31.2972 58.5439 31.3395 58.5439 31.3808 58.5417C32.2949 58.496 32.9024 57.9118 32.9091 57.0713C32.9158 56.2275 32.325 55.6054 31.402 55.5887C29.7811 55.5597 28.1592 55.5597 26.5383 55.5876C25.6176 55.6032 25.0078 56.223 25.0011 57.0513C24.9944 57.9063 25.6254 58.516 26.5785 58.5383C27.3677 58.5573 28.1581 58.5428 28.9484 58.5428V58.5439ZM28.9261 68.0426C28.9261 68.0426 28.9261 68.0438 28.9261 68.0449C29.6953 68.0449 30.4645 68.0449 31.2325 68.0449C31.2738 68.0449 31.3161 68.0449 31.3574 68.0426C32.2893 68.0025 32.8924 67.4407 32.9069 66.599C32.9225 65.7552 32.3339 65.1109 31.4231 65.093C29.7822 65.0607 28.1391 65.0607 26.4982 65.093C25.5897 65.1109 24.9844 65.7619 25.0011 66.5924C25.0178 67.4228 25.6354 68.0148 26.5551 68.0393C27.3443 68.0605 28.1346 68.0438 28.9239 68.0438L28.9261 68.0426Z" fill="white"/>
<path d="M52.4882 32.3679C55.5482 32.3679 58.6081 32.3668 61.6681 32.3679C62.6558 32.3679 62.9835 32.6923 62.9835 33.6699C62.9857 36.7098 62.9869 39.7509 62.9835 42.7908C62.9835 43.6948 62.6469 44.0404 61.7428 44.0415C55.5604 44.046 49.3781 44.046 43.1968 44.0415C42.3195 44.0415 41.984 43.7004 41.9828 42.8343C41.9784 39.752 41.9784 36.6708 41.9828 33.5886C41.984 32.6945 42.3239 32.3701 43.247 32.369C46.3281 32.3657 49.4082 32.3679 52.4893 32.3679H52.4882ZM44.0161 34.3901V42.0071H60.9402V34.3901H44.0161Z" fill="white"/>
<path d="M51.4395 52.6123C54.2063 52.6123 56.9731 52.61 59.7399 52.6145C60.4177 52.6145 60.8011 52.8977 60.8881 53.426C60.9806 53.9834 60.6607 54.4628 60.0933 54.5787C59.8926 54.6199 59.6797 54.611 59.4724 54.611C54.126 54.6121 48.7797 54.6132 43.4334 54.6099C43.1859 54.6099 42.9273 54.6099 42.6943 54.5419C42.1916 54.3936 41.9419 54.0247 41.9954 53.5018C42.0489 52.9813 42.3655 52.6669 42.8894 52.6268C43.3242 52.5933 43.7623 52.6134 44.1992 52.6134C46.6127 52.6134 49.0261 52.6134 51.4384 52.6134L51.4395 52.6123Z" fill="white"/>
<path d="M48.8948 58.6676C46.9808 58.6676 45.0668 58.6731 43.1528 58.6631C42.4895 58.6598 42.086 58.3532 42.0001 57.8415C41.8909 57.1916 42.3591 56.6844 43.1227 56.6733C44.2463 56.6566 45.37 56.6677 46.4925 56.6677C49.1144 56.6677 51.7352 56.6677 54.3571 56.6677C54.5443 56.6677 54.7327 56.6566 54.9178 56.6789C55.5086 56.7469 55.8887 57.1727 55.8631 57.7189C55.8386 58.2417 55.4662 58.6297 54.8855 58.6508C54.075 58.6809 53.2635 58.6664 52.452 58.6676C51.2659 58.6698 50.0798 58.6676 48.8948 58.6676Z" fill="white"/>
<path d="M47.8015 60.7523C49.2774 60.7523 50.7534 60.7501 52.2293 60.7523C53.0129 60.7545 53.4756 61.128 53.4767 61.7456C53.4789 62.3631 53.0129 62.7488 52.2349 62.7488C49.2206 62.7522 46.2052 62.7533 43.1909 62.7488C42.4095 62.7477 41.9692 62.3598 41.9848 61.7199C42.0004 61.1046 42.4251 60.7545 43.1854 60.7523C44.7237 60.7479 46.2621 60.7512 47.8004 60.7512L47.8015 60.7523Z" fill="white"/>
<path d="M47.6867 50.5113C46.1896 50.5113 44.6937 50.5146 43.1965 50.5102C42.4318 50.5079 42.0071 50.1657 41.9871 49.556C41.9659 48.9183 42.4107 48.5159 43.1854 48.5148C46.2209 48.5081 49.2552 48.5081 52.2906 48.5148C53.0163 48.5159 53.4756 48.9205 53.479 49.5147C53.4823 50.12 53.0364 50.5068 52.3018 50.5091C50.7634 50.5157 49.2251 50.5113 47.6867 50.5113Z" fill="white"/>
</g>
<defs>
<clipPath id="clip0_1824_4550">
<rect width="54.4553" height="60" fill="white" transform="translate(23 20)"/>
</clipPath>
</defs>
</svg>
